<svg xmlns="http://www.w3.org/2000/svg" width="1200" height="209" viewBox="0 66 1200 209" role="img" aria-label="Discipline">
  <title>Discipline</title>
  <defs>
    <path id="word" d="M221.6 215.5V102.4Q221.6 101.3 222.3 100.6Q222.9 99.9 224.1 99.9H267.5Q281.1 99.9 291.7 104.6Q302.2 109.3 308 118Q313.7 126.6 313.7 137.9V180Q313.7 191.3 308 199.9Q302.2 208.6 291.7 213.3Q281.1 218 267.5 218H224.1Q222.9 218 222.3 217.3Q221.6 216.7 221.6 215.5ZM254.1 190.8H268.7Q274.4 190.8 278.1 186.4Q281.8 181.9 282 174.6V143.3Q282 136 278.3 131.5Q274.6 127.1 268.5 127.1H254.1Q253.3 127.1 253.3 127.9V190Q253.3 190.8 254.1 190.8Z M328.4 108.5Q328.4 101.4 332.8 97Q337.3 92.6 344.2 92.6Q351.2 92.6 355.6 97Q360.1 101.4 360.1 108.5Q360.1 115.3 355.6 119.8Q351.2 124.4 344.2 124.4Q337.3 124.4 332.8 119.9Q328.4 115.4 328.4 108.5ZM328.2 215.5V132.8Q328.2 131.6 328.9 130.9Q329.6 130.3 330.7 130.3H357.4Q358.6 130.3 359.2 130.9Q359.9 131.6 359.9 132.8V215.5Q359.9 216.7 359.2 217.3Q358.6 218 357.4 218H330.7Q329.6 218 328.9 217.3Q328.2 216.7 328.2 215.5Z M372.6 192.2V190.7Q372.6 189.5 373.3 188.8Q373.9 188.1 375.1 188.1H400.4Q402.9 188.1 402.9 190Q402.9 192.7 405.9 194.4Q408.8 196.1 413.6 196.1Q417.3 196.1 419.6 195Q421.8 193.9 421.8 191.8Q421.8 189.5 419.1 188.6Q416.4 187.6 409.5 186.5Q403.1 185.6 398.1 184.4Q393 183.2 388.3 180.9Q373.8 173.8 373.8 158.6Q373.8 144.9 384.4 136.9Q395 128.9 412.4 128.9Q424.2 128.9 433.1 132.7Q441.9 136.5 446.8 143.4Q451.7 150.3 451.7 159.5Q451.7 161.3 449.2 161.3H424.7Q422.2 161.3 422.2 159.5Q422.2 156.6 419.6 155Q417.1 153.4 412.9 153.4Q409 153.4 406.6 154.6Q404.1 155.9 404.1 158.1Q404.1 160.8 407.3 161.8Q410.5 162.8 417.6 163.8Q418.5 164 424.1 164.9Q429.8 165.7 435 167.6Q444.1 170.8 448.9 176.4Q453.7 182.1 453.7 191.2Q453.7 205 442.9 212.2Q432.1 219.3 413.7 219.3Q394.7 219.3 383.6 211.9Q372.6 204.5 372.6 192.2Z M466.7 192.9Q463.3 184.3 463.3 173.6Q463.3 163.2 466.7 154.6Q471.4 142.6 482.2 135.8Q493 128.9 507.2 128.9Q521.5 128.9 532.6 136.1Q543.7 143.3 547.5 154.1Q548.7 157.1 549 160.5V161Q549 162.7 546.9 163.2L520.7 167.4H520.2Q518 167.4 517.8 165.2L517.2 162.8Q516.3 160 513.5 158Q510.8 156.1 507 156.1Q500.3 156.1 497.4 162.2Q495.4 166.4 495.4 173.8Q495.4 180.7 497.3 185.4Q500.1 192.2 507 192.2Q514.5 192.2 517.2 184.4L517.3 183.8Q517.8 180.9 520.2 181.4L546.5 185.8Q548.7 186.3 548.7 188.1Q548.7 190.2 547.5 193.7Q543.1 206 532.3 212.7Q521.4 219.3 507.2 219.3Q492.9 219.3 482.2 212.3Q471.6 205.3 466.7 192.9Z M561.4 108.5Q561.4 101.4 565.8 97Q570.3 92.6 577.2 92.6Q584.1 92.6 588.6 97Q593.1 101.4 593.1 108.5Q593.1 115.3 588.6 119.8Q584.1 124.4 577.2 124.4Q570.3 124.4 565.8 119.9Q561.4 115.4 561.4 108.5ZM561.2 215.5V132.8Q561.2 131.6 561.9 130.9Q562.5 130.3 563.7 130.3H590.4Q591.6 130.3 592.2 130.9Q592.9 131.6 592.9 132.8V215.5Q592.9 216.7 592.2 217.3Q591.6 218 590.4 218H563.7Q562.5 218 561.9 217.3Q561.2 216.7 561.2 215.5Z M695.8 174.5Q695.8 186.6 692.1 196.1Q688.1 206.4 679.5 212.9Q670.9 219.3 658.9 219.3Q646.6 219.3 640.7 211.6Q640.3 211.3 640 211.3Q639.6 211.4 639.6 211.9V245.8Q639.6 247 639 247.7Q638.3 248.4 637.1 248.4H610.5Q609.3 248.4 608.6 247.7Q607.9 247 607.9 245.8V132.8Q607.9 131.6 608.6 130.9Q609.3 130.3 610.5 130.3H637.1Q638.3 130.3 639 130.9Q639.6 131.6 639.6 132.8V137.9Q639.6 138.4 640 138.5Q640.3 138.7 640.7 138.2Q646.9 128.9 660.2 128.9Q671.5 128.9 680.6 136.1Q689.6 143.3 693.3 155.6Q695.8 164 695.8 174.5ZM662.6 174Q662.6 166.4 660.1 161.7Q657 156.1 651.1 156.1Q645.2 156.1 642.2 161.8Q639.6 166.5 639.6 174Q639.6 182.1 642.3 187Q645.4 192.2 651.1 192.2Q657.2 192.2 660.1 186.6Q662.6 181.7 662.6 174Z M708.5 215.5V102.4Q708.5 101.3 709.2 100.6Q709.8 99.9 711 99.9H737.7Q738.8 99.9 739.5 100.6Q740.2 101.3 740.2 102.4V215.5Q740.2 216.7 739.5 217.3Q738.8 218 737.7 218H711Q709.8 218 709.2 217.3Q708.5 216.7 708.5 215.5Z M754.9 108.5Q754.9 101.4 759.3 97Q763.8 92.6 770.7 92.6Q777.7 92.6 782.1 97Q786.6 101.4 786.6 108.5Q786.6 115.3 782.1 119.8Q777.7 124.4 770.7 124.4Q763.8 124.4 759.3 119.9Q754.9 115.4 754.9 108.5ZM754.7 215.5V132.8Q754.7 131.6 755.4 130.9Q756.1 130.3 757.2 130.3H783.9Q785.1 130.3 785.8 130.9Q786.4 131.6 786.4 132.8V215.5Q786.4 216.7 785.8 217.3Q785.1 218 783.9 218H757.2Q756.1 218 755.4 217.3Q754.7 216.7 754.7 215.5Z M883.4 160.5V215.5Q883.4 216.7 882.8 217.3Q882.1 218 880.9 218H854.2Q853.1 218 852.4 217.3Q851.7 216.7 851.7 215.5V167.4Q851.7 162.3 849.1 159.2Q846.5 156.1 842.3 156.1Q837.9 156.1 835.3 159.2Q832.7 162.3 832.7 167.4V215.5Q832.7 216.7 832 217.3Q831.3 218 830.1 218H803.5Q802.3 218 801.6 217.3Q800.9 216.7 800.9 215.5V132.8Q800.9 131.6 801.6 130.9Q802.3 130.3 803.5 130.3H830.1Q831.3 130.3 832 130.9Q832.7 131.6 832.7 132.8V138.9Q832.7 139.5 833 139.7Q833.3 139.9 833.5 139.4Q839.9 128.9 853.6 128.9Q862 128.9 868.8 132.6Q875.5 136.3 879.5 143.5Q883.4 150.7 883.4 160.5Z M982.1 175.5Q982.1 178.2 982 179.7Q982 182.1 979.4 182.1H928.8Q928.1 182.1 928.1 182.7Q928.1 184.3 929.5 186.3Q931.2 189.2 935.5 191.1Q939.8 193 945.2 193Q949.7 193 953.6 191.7Q957.5 190.3 960.2 187.8Q961 187.1 961.9 187.1Q963.1 187.1 963.7 188.1L976.6 204.5Q977.2 205.3 977.2 206.4Q977.2 207.4 976.4 208Q970.5 213.8 961.7 216.6Q952.9 219.3 942.8 219.3Q927.1 219.3 916 212.8Q904.9 206.2 899.8 194Q896.1 185.3 896.1 175.1Q896.1 164.5 899.1 156.3Q903.7 143.4 914.1 136.2Q924.6 128.9 938.8 128.9Q949.6 128.9 958.8 134Q968 139 973.9 147.9Q979.9 156.8 981.6 167.9Q982.1 171.6 982.1 175.5ZM929 162.8 928.3 164.7Q928.1 165.2 928.5 165.4Q928.8 165.7 929.2 165.7H948.4Q949.1 165.7 949.1 165Q949.1 164.3 948.6 162.8Q947.7 159.6 945.1 157.9Q942.5 156.1 938.6 156.1Q931.7 156.1 929 162.8Z"/>
    <clipPath id="wordclip"><use href="#word"/></clipPath>
    <mask id="outside" maskUnits="userSpaceOnUse" x="0" y="0" width="1200" height="290">
      <rect width="1200" height="290" fill="#fff"/>
      <use href="#word" fill="#000"/>
    </mask>

    <linearGradient id="body" gradientUnits="userSpaceOnUse" x1="0" y1="88" x2="0" y2="253">
      <stop offset="0" stop-color="#2c3560" stop-opacity="0.36"/>
      <stop offset="1" stop-color="#2c3560" stop-opacity="0.56"/>
    </linearGradient>

    <!-- waves fade in from the left and hand over to the solid beam as they converge -->
    <linearGradient id="wavefade" gradientUnits="userSpaceOnUse" x1="0" y1="0" x2="1200" y2="0">
      <stop offset="0" stop-color="#fff" stop-opacity="0"/>
      <stop offset="0.0917" stop-color="#fff"/>
      <stop offset="0.7484" stop-color="#fff"/>
      <stop offset="0.8067" stop-color="#fff" stop-opacity="0"/>
    </linearGradient>
    <linearGradient id="beamfade" gradientUnits="userSpaceOnUse" x1="0" y1="0" x2="1200" y2="0">
      <stop offset="0.7484" stop-color="#fff" stop-opacity="0"/>
      <stop offset="0.8067" stop-color="#fff"/>
      <stop offset="0.8750" stop-color="#fff"/>
      <stop offset="1" stop-color="#fff" stop-opacity="0"/>
    </linearGradient>
    <mask id="wavemask" maskUnits="userSpaceOnUse" x="0" y="0" width="1200" height="290"><rect width="1200" height="290" fill="url(#wavefade)"/></mask>
    <mask id="beammask" maskUnits="userSpaceOnUse" x="0" y="0" width="1200" height="290"><rect width="1200" height="290" fill="url(#beamfade)"/></mask>

    <path id="w0" d="M0,143.9 L2,146.1 L4,148.7 L6,151.7 L8,155.0 L10,158.6 L12,162.5 L14,166.6 L16,170.8 L18,175.1 L20,179.4 L22,183.5 L24,187.5 L26,191.3 L28,194.8 L30,198.0 L32,200.8 L34,203.2 L36,205.2 L38,206.7 L40,207.9 L42,208.6 L44,208.9 L46,208.8 L48,208.4 L50,207.7 L52,206.8 L54,205.7 L56,204.4 L58,203.0 L60,201.6 L62,200.2 L64,198.8 L66,197.5 L68,196.2 L70,195.0 L72,193.9 L74,192.8 L76,191.9 L78,191.0 L80,190.1 L82,189.3 L84,188.5 L86,187.6 L88,186.7 L90,185.8 L92,184.7 L94,183.6 L96,182.3 L98,181.0 L100,179.6 L102,178.1 L104,176.5 L106,174.9 L108,173.3 L110,171.6 L112,170.1 L114,168.6 L116,167.2 L118,165.9 L120,164.8 L122,163.9 L124,163.1 L126,162.5 L128,162.1 L130,161.9 L132,161.8 L134,161.8 L136,161.9 L138,162.1 L140,162.3 L142,162.5 L144,162.6 L146,162.7 L148,162.6 L150,162.3 L152,161.9 L154,161.2 L156,160.3 L158,159.3 L160,158.0 L162,156.5 L164,154.9 L166,153.2 L168,151.4 L170,149.6 L172,147.8 L174,146.2 L176,144.7 L178,143.4 L180,142.4 L182,141.7 L184,141.3 L186,141.4 L188,141.9 L190,142.9 L192,144.3 L194,146.1 L196,148.4 L198,151.0 L200,154.0 L202,157.4 L204,160.9 L206,164.7 L208,168.6 L210,172.5 L212,176.5 L214,180.3 L216,184.1 L218,187.6 L220,190.9 L222,193.9 L224,196.6 L226,199.0 L228,201.0 L230,202.7 L232,204.1 L234,205.2 L236,206.1 L238,206.6 L240,207.0 L242,207.1 L244,207.1 L246,206.9 L248,206.6 L250,206.2 L252,205.7 L254,205.2 L256,204.5 L258,203.8 L260,203.0 L262,202.1 L264,201.0 L266,199.9 L268,198.7 L270,197.3 L272,195.8 L274,194.1 L276,192.4 L278,190.5 L280,188.4 L282,186.3 L284,184.2 L286,181.9 L288,179.7 L290,177.4 L292,175.2 L294,173.1 L296,171.1 L298,169.2 L300,167.4 L302,165.8 L304,164.4 L306,163.2 L308,162.2 L310,161.4 L312,160.7 L314,160.2 L316,159.9 L318,159.7 L320,159.6 L322,159.5 L324,159.6 L326,159.6 L328,159.7 L330,159.7 L332,159.7 L334,159.7 L336,159.6 L338,159.5 L340,159.3 L342,159.0 L344,158.8 L346,158.4 L348,158.1 L350,157.7 L352,157.3 L354,156.9 L356,156.6 L358,156.3 L360,156.1 L362,155.9 L364,155.8 L366,155.8 L368,155.8 L370,156.0 L372,156.2 L374,156.5 L376,157.0 L378,157.5 L380,158.2 L382,159.0 L384,159.9 L386,160.9 L388,162.0 L390,163.3 L392,164.6 L394,166.1 L396,167.6 L398,169.2 L400,170.9 L402,172.7 L404,174.4 L406,176.2 L408,178.0 L410,179.8 L412,181.6 L414,183.4 L416,185.1 L418,186.7 L420,188.3 L422,189.7 L424,191.1 L426,192.4 L428,193.5 L430,194.5 L432,195.3 L434,196.1 L436,196.6 L438,197.1 L440,197.4 L442,197.5 L444,197.5 L446,197.3 L448,197.0 L450,196.6 L452,196.1 L454,195.4 L456,194.6 L458,193.8 L460,192.8 L462,191.8 L464,190.7 L466,189.5 L468,188.3 L470,187.1 L472,185.8 L474,184.5 L476,183.2 L478,181.8 L480,180.5 L482,179.2 L484,177.9 L486,176.7 L488,175.4 L490,174.2 L492,173.0 L494,171.9 L496,170.8 L498,169.7 L500,168.7 L502,167.7 L504,166.8 L506,165.9 L508,165.0 L510,164.2 L512,163.5 L514,162.8 L516,162.1 L518,161.5 L520,161.0 L522,160.5 L524,160.0 L526,159.6 L528,159.3 L530,159.0 L532,158.8 L534,158.6 L536,158.5 L538,158.5 L540,158.5 L542,158.6 L544,158.8 L546,159.0 L548,159.3 L550,159.7 L552,160.1 L554,160.6 L556,161.2 L558,161.8 L560,162.4 L562,163.1 L564,163.9 L566,164.6 L568,165.4 L570,166.3 L572,167.1 L574,168.0 L576,168.9 L578,169.8 L580,170.7 L582,171.6 L584,172.5 L586,173.4 L588,174.3 L590,175.2 L592,176.1 L594,176.9 L596,177.7 L598,178.5 L600,179.3 L602,180.0 L604,180.7 L606,181.4 L608,182.0 L610,182.5 L612,183.1 L614,183.5 L616,184.0 L618,184.3 L620,184.6 L622,184.9 L624,185.1 L626,185.3 L628,185.4 L630,185.5 L632,185.5 L634,185.4 L636,185.3 L638,185.2 L640,185.0 L642,184.8 L644,184.5 L646,184.2 L648,183.8 L650,183.4 L652,183.0 L654,182.5 L656,182.0 L658,181.5 L660,181.0 L662,180.4 L664,179.8 L666,179.2 L668,178.6 L670,178.0 L672,177.4 L674,176.8 L676,176.1 L678,175.5 L680,174.9 L682,174.3 L684,173.7 L686,173.1 L688,172.6 L690,172.0 L692,171.5 L694,171.0 L696,170.5 L698,170.1 L700,169.6 L702,169.3 L704,168.9 L706,168.6 L708,168.3 L710,168.0 L712,167.8 L714,167.6 L716,167.4 L718,167.3 L720,167.2 L722,167.2 L724,167.1 L726,167.1 L728,167.2 L730,167.3 L732,167.4 L734,167.5 L736,167.6 L738,167.8 L740,168.0 L742,168.3 L744,168.5 L746,168.8 L748,169.1 L750,169.4 L752,169.7 L754,170.0 L756,170.4 L758,170.7 L760,171.1 L762,171.4 L764,171.8 L766,172.1 L768,172.5 L770,172.9 L772,173.2 L774,173.6 L776,173.9 L778,174.2 L780,174.5 L782,174.8 L784,175.1 L786,175.4 L788,175.6 L790,175.9 L792,176.1 L794,176.3 L796,176.5 L798,176.7 L800,176.8 L802,176.9 L804,177.0 L806,177.1 L808,177.2 L810,177.3 L812,177.3 L814,177.3 L816,177.3 L818,177.3 L820,177.3 L822,177.2 L824,177.2 L826,177.1 L828,177.0 L830,176.9 L832,176.8 L834,176.7 L836,176.6 L838,176.4 L840,176.3 L842,176.2 L844,176.0 L846,175.9 L848,175.7 L850,175.6 L852,175.4 L854,175.3 L856,175.1 L858,175.0 L860,174.9 L862,174.7 L864,174.6 L866,174.5 L868,174.4 L870,174.3 L872,174.2 L874,174.1 L876,174.0 L878,173.9 L880,173.8 L882,173.8 L884,173.7 L886,173.7 L888,173.7 L890,173.6 L892,173.6 L894,173.6 L896,173.6 L898,173.6 L900,173.6 L902,173.6 L904,173.6 L906,173.6 L908,173.7 L910,173.7 L912,173.7 L914,173.8 L916,173.8 L918,173.8 L920,173.9 L922,173.9 L924,173.9 L926,174.0 L928,174.0 L930,174.0 L932,174.1 L934,174.1 L936,174.1 L938,174.1 L940,174.1 L942,174.1 L944,174.1 L946,174.1 L948,174.1 L950,174.1 L952,174.1 L954,174.1 L956,174.1 L958,174.1 L960,174.1 L962,174.1 L964,174.1 L966,174.1 L968,174.1 L970,174.1 L972,174.1 L974,174.1 L976,174.1 L978,174.1 L980,174.1 L982,174.1 L984,174.1 L986,174.1 L988,174.1 L990,174.1 L992,174.1 L994,174.1 L996,174.1 L998,174.1 L1000,174.1 L1002,174.1 L1004,174.1 L1006,174.1 L1008,174.1 L1010,174.1 L1012,174.1 L1014,174.1 L1016,174.1 L1018,174.1 L1020,174.1 L1022,174.1 L1024,174.1 L1026,174.1 L1028,174.1 L1030,174.1 L1032,174.1 L1034,174.1 L1036,174.1 L1038,174.1 L1040,174.1 L1042,174.1 L1044,174.1 L1046,174.1 L1048,174.1 L1050,174.1 L1052,174.1 L1054,174.1 L1056,174.1 L1058,174.1 L1060,174.1 L1062,174.1 L1064,174.1 L1066,174.1 L1068,174.1 L1070,174.1 L1072,174.1 L1074,174.1 L1076,174.1 L1078,174.1 L1080,174.1 L1082,174.1 L1084,174.1 L1086,174.1 L1088,174.1 L1090,174.1 L1092,174.1 L1094,174.1 L1096,174.1 L1098,174.1 L1100,174.1 L1102,174.1 L1104,174.1 L1106,174.1 L1108,174.1 L1110,174.1 L1112,174.1 L1114,174.1 L1116,174.1 L1118,174.1 L1120,174.1 L1122,174.1 L1124,174.1 L1126,174.1 L1128,174.1 L1130,174.1 L1132,174.1 L1134,174.1 L1136,174.1 L1138,174.1 L1140,174.1 L1142,174.1 L1144,174.1 L1146,174.1 L1148,174.1 L1150,174.1 L1152,174.1 L1154,174.1 L1156,174.1 L1158,174.1 L1160,174.1 L1162,174.1 L1164,174.1 L1166,174.1 L1168,174.1 L1170,174.1 L1172,174.1 L1174,174.1 L1176,174.1 L1178,174.1 L1180,174.1 L1182,174.1 L1184,174.1 L1186,174.1 L1188,174.1 L1190,174.1 L1192,174.1 L1194,174.1 L1196,174.1 L1198,174.1 L1200,174.1"/>
    <path id="w1" d="M0,192.9 L2,193.1 L4,193.3 L6,193.5 L8,193.5 L10,193.5 L12,193.4 L14,193.1 L16,192.6 L18,192.1 L20,191.3 L22,190.5 L24,189.5 L26,188.5 L28,187.3 L30,186.1 L32,184.9 L34,183.8 L36,182.6 L38,181.5 L40,180.5 L42,179.6 L44,178.7 L46,178.0 L48,177.4 L50,176.9 L52,176.4 L54,176.0 L56,175.6 L58,175.2 L60,174.8 L62,174.2 L64,173.6 L66,172.7 L68,171.7 L70,170.5 L72,169.1 L74,167.4 L76,165.5 L78,163.3 L80,161.0 L82,158.5 L84,155.8 L86,153.0 L88,150.2 L90,147.4 L92,144.7 L94,142.1 L96,139.7 L98,137.5 L100,135.7 L102,134.3 L104,133.2 L106,132.7 L108,132.6 L110,133.0 L112,133.9 L114,135.2 L116,137.1 L118,139.3 L120,142.0 L122,145.0 L124,148.3 L126,151.8 L128,155.5 L130,159.3 L132,163.1 L134,166.9 L136,170.6 L138,174.1 L140,177.5 L142,180.6 L144,183.5 L146,186.1 L148,188.4 L150,190.5 L152,192.3 L154,193.8 L156,195.1 L158,196.2 L160,197.1 L162,197.8 L164,198.4 L166,198.9 L168,199.3 L170,199.7 L172,200.0 L174,200.3 L176,200.5 L178,200.8 L180,200.9 L182,201.1 L184,201.2 L186,201.2 L188,201.1 L190,200.9 L192,200.5 L194,200.0 L196,199.3 L198,198.5 L200,197.4 L202,196.1 L204,194.7 L206,193.1 L208,191.3 L210,189.4 L212,187.4 L214,185.4 L216,183.4 L218,181.3 L220,179.4 L222,177.6 L224,176.0 L226,174.5 L228,173.3 L230,172.3 L232,171.6 L234,171.0 L236,170.7 L238,170.6 L240,170.7 L242,170.9 L244,171.1 L246,171.4 L248,171.8 L250,172.0 L252,172.2 L254,172.2 L256,172.0 L258,171.7 L260,171.1 L262,170.2 L264,169.2 L266,167.9 L268,166.3 L270,164.6 L272,162.8 L274,160.8 L276,158.7 L278,156.6 L280,154.5 L282,152.4 L284,150.5 L286,148.7 L288,147.1 L290,145.7 L292,144.6 L294,143.7 L296,143.1 L298,142.8 L300,142.8 L302,143.1 L304,143.7 L306,144.5 L308,145.6 L310,146.9 L312,148.4 L314,150.1 L316,151.9 L318,153.9 L320,155.9 L322,158.1 L324,160.4 L326,162.7 L328,165.1 L330,167.5 L332,169.9 L334,172.3 L336,174.8 L338,177.2 L340,179.6 L342,181.9 L344,184.2 L346,186.4 L348,188.5 L350,190.5 L352,192.4 L354,194.2 L356,195.8 L358,197.2 L360,198.4 L362,199.4 L364,200.2 L366,200.9 L368,201.3 L370,201.5 L372,201.5 L374,201.4 L376,201.1 L378,200.6 L380,200.0 L382,199.3 L384,198.4 L386,197.4 L388,196.4 L390,195.2 L392,194.0 L394,192.8 L396,191.5 L398,190.2 L400,188.8 L402,187.5 L404,186.2 L406,184.8 L408,183.5 L410,182.3 L412,181.0 L414,179.8 L416,178.6 L418,177.5 L420,176.4 L422,175.3 L424,174.3 L426,173.3 L428,172.3 L430,171.4 L432,170.5 L434,169.6 L436,168.8 L438,168.0 L440,167.2 L442,166.4 L444,165.6 L446,164.9 L448,164.2 L450,163.5 L452,162.8 L454,162.1 L456,161.5 L458,160.8 L460,160.2 L462,159.7 L464,159.1 L466,158.7 L468,158.2 L470,157.8 L472,157.5 L474,157.3 L476,157.1 L478,156.9 L480,156.9 L482,156.9 L484,157.0 L486,157.2 L488,157.5 L490,157.8 L492,158.2 L494,158.8 L496,159.4 L498,160.1 L500,160.8 L502,161.6 L504,162.5 L506,163.5 L508,164.5 L510,165.5 L512,166.6 L514,167.8 L516,168.9 L518,170.1 L520,171.3 L522,172.4 L524,173.6 L526,174.8 L528,175.9 L530,177.0 L532,178.1 L534,179.1 L536,180.1 L538,181.1 L540,182.0 L542,182.8 L544,183.6 L546,184.3 L548,185.0 L550,185.6 L552,186.2 L554,186.7 L556,187.1 L558,187.5 L560,187.8 L562,188.1 L564,188.3 L566,188.4 L568,188.4 L570,188.4 L572,188.4 L574,188.2 L576,188.0 L578,187.8 L580,187.5 L582,187.1 L584,186.7 L586,186.2 L588,185.7 L590,185.1 L592,184.5 L594,183.9 L596,183.2 L598,182.5 L600,181.8 L602,181.0 L604,180.3 L606,179.5 L608,178.7 L610,177.9 L612,177.1 L614,176.2 L616,175.4 L618,174.6 L620,173.8 L622,173.0 L624,172.3 L626,171.5 L628,170.8 L630,170.1 L632,169.5 L634,168.8 L636,168.2 L638,167.7 L640,167.1 L642,166.7 L644,166.2 L646,165.8 L648,165.5 L650,165.2 L652,164.9 L654,164.7 L656,164.5 L658,164.4 L660,164.3 L662,164.3 L664,164.3 L666,164.3 L668,164.4 L670,164.6 L672,164.8 L674,165.0 L676,165.2 L678,165.5 L680,165.9 L682,166.2 L684,166.6 L686,167.0 L688,167.4 L690,167.9 L692,168.4 L694,168.9 L696,169.4 L698,169.9 L700,170.4 L702,170.9 L704,171.5 L706,172.0 L708,172.5 L710,173.1 L712,173.6 L714,174.1 L716,174.6 L718,175.1 L720,175.5 L722,176.0 L724,176.4 L726,176.8 L728,177.2 L730,177.6 L732,177.9 L734,178.2 L736,178.5 L738,178.8 L740,179.0 L742,179.2 L744,179.4 L746,179.5 L748,179.6 L750,179.7 L752,179.8 L754,179.8 L756,179.8 L758,179.8 L760,179.7 L762,179.6 L764,179.5 L766,179.4 L768,179.3 L770,179.1 L772,178.9 L774,178.7 L776,178.5 L778,178.3 L780,178.0 L782,177.8 L784,177.5 L786,177.3 L788,177.0 L790,176.7 L792,176.4 L794,176.2 L796,175.9 L798,175.6 L800,175.3 L802,175.0 L804,174.8 L806,174.5 L808,174.3 L810,174.0 L812,173.8 L814,173.6 L816,173.4 L818,173.2 L820,173.0 L822,172.9 L824,172.7 L826,172.6 L828,172.5 L830,172.3 L832,172.3 L834,172.2 L836,172.1 L838,172.1 L840,172.0 L842,172.0 L844,172.0 L846,172.0 L848,172.0 L850,172.1 L852,172.1 L854,172.1 L856,172.2 L858,172.3 L860,172.3 L862,172.4 L864,172.5 L866,172.6 L868,172.7 L870,172.8 L872,172.9 L874,173.0 L876,173.1 L878,173.2 L880,173.3 L882,173.4 L884,173.5 L886,173.5 L888,173.6 L890,173.7 L892,173.8 L894,173.9 L896,173.9 L898,174.0 L900,174.0 L902,174.1 L904,174.1 L906,174.2 L908,174.2 L910,174.2 L912,174.2 L914,174.3 L916,174.3 L918,174.3 L920,174.3 L922,174.3 L924,174.3 L926,174.3 L928,174.2 L930,174.2 L932,174.2 L934,174.2 L936,174.2 L938,174.2 L940,174.1 L942,174.1 L944,174.1 L946,174.1 L948,174.1 L950,174.1 L952,174.1 L954,174.1 L956,174.1 L958,174.1 L960,174.1 L962,174.1 L964,174.1 L966,174.1 L968,174.1 L970,174.1 L972,174.1 L974,174.1 L976,174.1 L978,174.1 L980,174.1 L982,174.1 L984,174.1 L986,174.1 L988,174.1 L990,174.1 L992,174.1 L994,174.1 L996,174.1 L998,174.1 L1000,174.1 L1002,174.1 L1004,174.1 L1006,174.1 L1008,174.1 L1010,174.1 L1012,174.1 L1014,174.1 L1016,174.1 L1018,174.1 L1020,174.1 L1022,174.1 L1024,174.1 L1026,174.1 L1028,174.1 L1030,174.1 L1032,174.1 L1034,174.1 L1036,174.1 L1038,174.1 L1040,174.1 L1042,174.1 L1044,174.1 L1046,174.1 L1048,174.1 L1050,174.1 L1052,174.1 L1054,174.1 L1056,174.1 L1058,174.1 L1060,174.1 L1062,174.1 L1064,174.1 L1066,174.1 L1068,174.1 L1070,174.1 L1072,174.1 L1074,174.1 L1076,174.1 L1078,174.1 L1080,174.1 L1082,174.1 L1084,174.1 L1086,174.1 L1088,174.1 L1090,174.1 L1092,174.1 L1094,174.1 L1096,174.1 L1098,174.1 L1100,174.1 L1102,174.1 L1104,174.1 L1106,174.1 L1108,174.1 L1110,174.1 L1112,174.1 L1114,174.1 L1116,174.1 L1118,174.1 L1120,174.1 L1122,174.1 L1124,174.1 L1126,174.1 L1128,174.1 L1130,174.1 L1132,174.1 L1134,174.1 L1136,174.1 L1138,174.1 L1140,174.1 L1142,174.1 L1144,174.1 L1146,174.1 L1148,174.1 L1150,174.1 L1152,174.1 L1154,174.1 L1156,174.1 L1158,174.1 L1160,174.1 L1162,174.1 L1164,174.1 L1166,174.1 L1168,174.1 L1170,174.1 L1172,174.1 L1174,174.1 L1176,174.1 L1178,174.1 L1180,174.1 L1182,174.1 L1184,174.1 L1186,174.1 L1188,174.1 L1190,174.1 L1192,174.1 L1194,174.1 L1196,174.1 L1198,174.1 L1200,174.1"/>
    <path id="w2" d="M0,170.8 L2,167.5 L4,164.0 L6,160.4 L8,156.7 L10,153.0 L12,149.5 L14,146.0 L16,142.8 L18,139.8 L20,137.2 L22,134.9 L24,133.1 L26,131.7 L28,130.9 L30,130.5 L32,130.6 L34,131.3 L36,132.4 L38,133.9 L40,135.9 L42,138.2 L44,140.8 L46,143.6 L48,146.6 L50,149.7 L52,152.9 L54,156.1 L56,159.2 L58,162.2 L60,165.0 L62,167.7 L64,170.1 L66,172.4 L68,174.4 L70,176.2 L72,177.8 L74,179.2 L76,180.4 L78,181.5 L80,182.5 L82,183.4 L84,184.2 L86,185.0 L88,185.8 L90,186.7 L92,187.5 L94,188.3 L96,189.2 L98,190.2 L100,191.1 L102,192.0 L104,192.9 L106,193.8 L108,194.6 L110,195.3 L112,195.9 L114,196.4 L116,196.6 L118,196.8 L120,196.7 L122,196.5 L124,196.0 L126,195.5 L128,194.7 L130,193.8 L132,192.9 L134,191.8 L136,190.8 L138,189.7 L140,188.7 L142,187.8 L144,186.9 L146,186.2 L148,185.7 L150,185.3 L152,185.1 L154,185.1 L156,185.2 L158,185.5 L160,185.9 L162,186.3 L164,186.8 L166,187.3 L168,187.7 L170,188.0 L172,188.2 L174,188.1 L176,187.8 L178,187.2 L180,186.3 L182,185.0 L184,183.4 L186,181.5 L188,179.1 L190,176.5 L192,173.6 L194,170.4 L196,167.1 L198,163.6 L200,160.0 L202,156.4 L204,152.9 L206,149.4 L208,146.2 L210,143.3 L212,140.6 L214,138.3 L216,136.4 L218,135.0 L220,134.0 L222,133.4 L224,133.3 L226,133.7 L228,134.4 L230,135.5 L232,136.9 L234,138.6 L236,140.5 L238,142.6 L240,144.8 L242,147.2 L244,149.6 L246,152.0 L248,154.4 L250,156.8 L252,159.2 L254,161.5 L256,163.8 L258,166.0 L260,168.2 L262,170.3 L264,172.4 L266,174.5 L268,176.6 L270,178.6 L272,180.7 L274,182.7 L276,184.7 L278,186.6 L280,188.5 L282,190.3 L284,192.1 L286,193.7 L288,195.2 L290,196.5 L292,197.7 L294,198.6 L296,199.4 L298,199.9 L300,200.3 L302,200.4 L304,200.2 L306,199.9 L308,199.4 L310,198.7 L312,197.9 L314,197.0 L316,195.9 L318,194.8 L320,193.7 L322,192.6 L324,191.4 L326,190.3 L328,189.3 L330,188.4 L332,187.5 L334,186.7 L336,185.9 L338,185.3 L340,184.7 L342,184.2 L344,183.7 L346,183.2 L348,182.8 L350,182.3 L352,181.8 L354,181.3 L356,180.8 L358,180.2 L360,179.6 L362,178.9 L364,178.1 L366,177.3 L368,176.4 L370,175.5 L372,174.5 L374,173.4 L376,172.3 L378,171.1 L380,169.9 L382,168.7 L384,167.4 L386,166.0 L388,164.7 L390,163.4 L392,162.0 L394,160.7 L396,159.4 L398,158.2 L400,157.0 L402,155.8 L404,154.8 L406,153.9 L408,153.0 L410,152.3 L412,151.7 L414,151.2 L416,150.9 L418,150.7 L420,150.7 L422,150.8 L424,151.1 L426,151.5 L428,152.0 L430,152.7 L432,153.5 L434,154.5 L436,155.6 L438,156.8 L440,158.1 L442,159.4 L444,160.9 L446,162.4 L448,164.0 L450,165.6 L452,167.2 L454,168.9 L456,170.5 L458,172.2 L460,173.8 L462,175.4 L464,176.9 L466,178.4 L468,179.9 L470,181.2 L472,182.5 L474,183.8 L476,184.9 L478,185.9 L480,186.9 L482,187.8 L484,188.6 L486,189.2 L488,189.8 L490,190.4 L492,190.8 L494,191.1 L496,191.4 L498,191.6 L500,191.7 L502,191.7 L504,191.7 L506,191.6 L508,191.4 L510,191.2 L512,190.9 L514,190.5 L516,190.1 L518,189.7 L520,189.2 L522,188.7 L524,188.1 L526,187.4 L528,186.7 L530,186.0 L532,185.3 L534,184.5 L536,183.6 L538,182.8 L540,181.9 L542,181.0 L544,180.0 L546,179.1 L548,178.1 L550,177.1 L552,176.1 L554,175.1 L556,174.1 L558,173.1 L560,172.1 L562,171.2 L564,170.3 L566,169.4 L568,168.5 L570,167.7 L572,166.9 L574,166.2 L576,165.5 L578,164.8 L580,164.2 L582,163.7 L584,163.2 L586,162.7 L588,162.4 L590,162.0 L592,161.8 L594,161.6 L596,161.4 L598,161.3 L600,161.3 L602,161.3 L604,161.4 L606,161.6 L608,161.8 L610,162.0 L612,162.3 L614,162.6 L616,163.0 L618,163.5 L620,163.9 L622,164.4 L624,165.0 L626,165.6 L628,166.2 L630,166.8 L632,167.5 L634,168.1 L636,168.8 L638,169.5 L640,170.3 L642,171.0 L644,171.7 L646,172.4 L648,173.1 L650,173.8 L652,174.5 L654,175.2 L656,175.9 L658,176.5 L660,177.1 L662,177.7 L664,178.3 L666,178.8 L668,179.3 L670,179.8 L672,180.3 L674,180.7 L676,181.0 L678,181.4 L680,181.6 L682,181.9 L684,182.1 L686,182.3 L688,182.4 L690,182.5 L692,182.5 L694,182.6 L696,182.5 L698,182.5 L700,182.4 L702,182.2 L704,182.0 L706,181.8 L708,181.6 L710,181.3 L712,181.1 L714,180.7 L716,180.4 L718,180.0 L720,179.7 L722,179.3 L724,178.9 L726,178.4 L728,178.0 L730,177.6 L732,177.1 L734,176.7 L736,176.3 L738,175.8 L740,175.4 L742,174.9 L744,174.5 L746,174.1 L748,173.7 L750,173.3 L752,172.9 L754,172.6 L756,172.2 L758,171.9 L760,171.6 L762,171.3 L764,171.1 L766,170.8 L768,170.6 L770,170.4 L772,170.3 L774,170.1 L776,170.0 L778,169.9 L780,169.8 L782,169.8 L784,169.8 L786,169.8 L788,169.8 L790,169.8 L792,169.9 L794,170.0 L796,170.0 L798,170.2 L800,170.3 L802,170.4 L804,170.6 L806,170.7 L808,170.9 L810,171.1 L812,171.3 L814,171.5 L816,171.7 L818,171.9 L820,172.1 L822,172.3 L824,172.5 L826,172.7 L828,172.9 L830,173.1 L832,173.3 L834,173.5 L836,173.7 L838,173.9 L840,174.1 L842,174.2 L844,174.4 L846,174.5 L848,174.6 L850,174.8 L852,174.9 L854,175.0 L856,175.1 L858,175.1 L860,175.2 L862,175.3 L864,175.3 L866,175.3 L868,175.4 L870,175.4 L872,175.4 L874,175.4 L876,175.3 L878,175.3 L880,175.3 L882,175.3 L884,175.2 L886,175.2 L888,175.1 L890,175.1 L892,175.0 L894,175.0 L896,174.9 L898,174.8 L900,174.8 L902,174.7 L904,174.7 L906,174.6 L908,174.5 L910,174.5 L912,174.4 L914,174.4 L916,174.3 L918,174.3 L920,174.3 L922,174.2 L924,174.2 L926,174.2 L928,174.2 L930,174.2 L932,174.1 L934,174.1 L936,174.1 L938,174.1 L940,174.1 L942,174.1 L944,174.1 L946,174.1 L948,174.1 L950,174.1 L952,174.1 L954,174.1 L956,174.1 L958,174.1 L960,174.1 L962,174.1 L964,174.1 L966,174.1 L968,174.1 L970,174.1 L972,174.1 L974,174.1 L976,174.1 L978,174.1 L980,174.1 L982,174.1 L984,174.1 L986,174.1 L988,174.1 L990,174.1 L992,174.1 L994,174.1 L996,174.1 L998,174.1 L1000,174.1 L1002,174.1 L1004,174.1 L1006,174.1 L1008,174.1 L1010,174.1 L1012,174.1 L1014,174.1 L1016,174.1 L1018,174.1 L1020,174.1 L1022,174.1 L1024,174.1 L1026,174.1 L1028,174.1 L1030,174.1 L1032,174.1 L1034,174.1 L1036,174.1 L1038,174.1 L1040,174.1 L1042,174.1 L1044,174.1 L1046,174.1 L1048,174.1 L1050,174.1 L1052,174.1 L1054,174.1 L1056,174.1 L1058,174.1 L1060,174.1 L1062,174.1 L1064,174.1 L1066,174.1 L1068,174.1 L1070,174.1 L1072,174.1 L1074,174.1 L1076,174.1 L1078,174.1 L1080,174.1 L1082,174.1 L1084,174.1 L1086,174.1 L1088,174.1 L1090,174.1 L1092,174.1 L1094,174.1 L1096,174.1 L1098,174.1 L1100,174.1 L1102,174.1 L1104,174.1 L1106,174.1 L1108,174.1 L1110,174.1 L1112,174.1 L1114,174.1 L1116,174.1 L1118,174.1 L1120,174.1 L1122,174.1 L1124,174.1 L1126,174.1 L1128,174.1 L1130,174.1 L1132,174.1 L1134,174.1 L1136,174.1 L1138,174.1 L1140,174.1 L1142,174.1 L1144,174.1 L1146,174.1 L1148,174.1 L1150,174.1 L1152,174.1 L1154,174.1 L1156,174.1 L1158,174.1 L1160,174.1 L1162,174.1 L1164,174.1 L1166,174.1 L1168,174.1 L1170,174.1 L1172,174.1 L1174,174.1 L1176,174.1 L1178,174.1 L1180,174.1 L1182,174.1 L1184,174.1 L1186,174.1 L1188,174.1 L1190,174.1 L1192,174.1 L1194,174.1 L1196,174.1 L1198,174.1 L1200,174.1"/>
    <path id="beam" d="M0,174.1 H1200"/>
    <g id="light">
      <g fill="none" stroke-width="5" stroke-linecap="round" stroke-linejoin="round" stroke-opacity="0.5" mask="url(#wavemask)">
        <use href="#w0" stroke="#e0182d"/>
        <use href="#w1" stroke="#12b84a"/>
        <use href="#w2" stroke="#2350e0"/>
      </g>
      <use href="#beam" fill="none" stroke="#0b1020" stroke-width="6" stroke-linecap="round" mask="url(#beammask)"/>
    </g>
    <g id="lightin">
      <g fill="none" stroke-width="7.5" stroke-linecap="round" stroke-linejoin="round" stroke-opacity="0.5" mask="url(#wavemask)">
        <use href="#w0" stroke="#e0182d"/>
        <use href="#w1" stroke="#12b84a"/>
        <use href="#w2" stroke="#2350e0"/>
      </g>
      <use href="#beam" fill="none" stroke="#0b1020" stroke-width="5.4" stroke-linecap="round" mask="url(#beammask)"/>
    </g>

    <filter id="glow" filterUnits="userSpaceOnUse" x="0" y="0" width="1200" height="290" color-interpolation-filters="sRGB">
      <feGaussianBlur in="SourceGraphic" stdDeviation="2.5" result="wideRaw"/>
      <feComponentTransfer in="wideRaw" result="wide"><feFuncA type="linear" slope="0.22"/></feComponentTransfer>
      <feGaussianBlur in="SourceGraphic" stdDeviation="0.7" result="tight"/>
      <feMerge>
        <feMergeNode in="wide"/><feMergeNode in="tight"/><feMergeNode in="SourceGraphic"/>
      </feMerge>
    </filter>

    <path id="r0" d="M209.8,193.9 L219.2,196.0 L223.4,197.8 L226.1,199.5 L227.9,201.0 L229.5,202.3 L231.0,203.5 L232.5,204.4 L234.0,205.2 L235.5,205.9 L237.0,206.4 L238.5,206.7 L240.0,207.0 L241.5,207.1 L243.0,207.1 L244.5,207.0 L246.0,206.9 L247.5,206.7 L249.0,206.4 L250.5,206.1 L252.0,205.7 L253.5,205.3 L255.0,204.8 L256.5,204.3 L258.0,203.8 L259.5,203.2 L261.0,202.5 L262.5,201.8 L264.0,201.0 L265.5,200.2 L267.0,199.3 L268.5,198.3 L270.0,197.2 L271.5,195.8 L272.8,194.2 L273.9,192.2 L274.9,190.6 L275.7,188.6 L276.9,187.4 L278.4,185.8 L279.6,185.1 L282.1,184.0 L284.0,182.8 L286.1,181.3 L287.9,179.7 L289.5,178.0 L291.0,176.3 L292.5,174.7 L294.0,173.1 L295.5,171.6 L297.0,170.1 L298.5,168.7 L300.0,167.4 L301.5,166.2 L303.0,165.1 L304.5,164.1 L306.0,163.2 L307.6,162.4 L309.4,161.8 L312.1,161.2 L316.3,160.7 L325.7,160.3 M316.3,159.7 L325.7,159.7 L329.9,159.7 L332.6,159.7 L334.4,159.7 L336.0,159.6 L337.5,159.5 L339.0,159.4 L340.5,159.2 L342.0,159.0 L343.5,158.8 L345.0,158.6 L346.5,158.3 L348.0,158.1 L349.5,157.8 L351.0,157.5 L352.5,157.2 L354.1,156.9 L356.2,156.7 L359.2,156.5 L364.5,156.3 M369.0,156.7 L374.3,157.1 L377.3,157.5 L379.4,158.0 L381.0,158.6 L382.5,159.2 L384.0,159.9 L385.5,160.6 L387.0,161.4 L388.5,162.3 L390.0,163.3 L391.5,164.3 L393.0,165.4 L394.5,166.5 L396.0,167.6 L397.5,168.8 L399.0,170.1 L400.5,171.4 L402.0,172.7 L403.5,174.0 L405.0,175.3 L406.5,176.7 L408.0,178.0 L409.5,179.4 L411.0,180.9 L412.5,182.5 L413.7,184.6 L415.0,186.9 L416.2,189.8 L417.2,193.4 L415.2,196.6 L415.2,195.6 L417.4,191.9 L422.3,191.5 L425.3,192.3 L427.4,193.2 L429.0,194.0 L430.5,194.7 L432.0,195.3 L433.5,195.9 L435.0,196.4 L436.5,196.8 L438.0,197.1 L439.5,197.3 L441.0,197.4 L442.5,197.5 L444.0,197.5 L445.5,197.4 L447.1,197.2 L449.1,197.1 L451.9,197.1 L455.7,197.2 L464.8,198.7 M459.1,191.7 L465.6,189.0 L468.8,187.5 L470.9,186.4 L472.5,185.5 L474.0,184.5 L475.5,183.5 L477.0,182.5 L478.5,181.5 L480.0,180.5 L481.5,179.6 L483.0,178.6 L484.5,177.6 L486.0,176.7 L487.5,175.7 L489.1,174.8 L490.9,173.9 L493.6,173.0 L497.8,172.2 L507.2,171.5 M509.4,164.5 L516.0,162.3 L519.5,161.2 L521.8,160.6 L523.5,160.2 L525.0,159.9 L526.5,159.6 L528.0,159.3 L529.5,159.1 L531.0,158.9 L532.5,158.8 L534.0,158.7 L535.5,158.6 L537.0,158.6 L538.5,158.7 L540.0,158.8 L541.6,158.9 L543.2,159.2 L545.2,159.1 L548.2,158.9 L553.5,159.0 M556.5,163.3 L561.8,163.9 L564.8,164.5 L566.9,165.0 L568.5,165.7 L570.0,166.3 L571.5,166.9 L573.0,167.6 L574.5,168.2 L576.0,168.9 L577.5,169.6 L579.0,170.3 L580.5,170.9 L582.0,171.6 L583.5,172.3 L585.0,173.0 L586.6,173.7 L588.4,174.3 L591.1,175.0 L595.3,175.7 L604.7,176.3 M603.0,182.3 L608.3,182.7 L611.3,183.1 L613.4,183.4 L615.0,183.8 L616.5,184.1 L618.0,184.3 L619.5,184.6 L621.0,184.8 L622.5,185.0 L624.0,185.1 L625.5,185.3 L627.0,185.4 L628.5,185.4 L630.0,185.5 L631.5,185.5 L633.0,185.5 L634.6,185.4 L636.4,185.2 L639.0,184.8 L643.0,183.8 L651.5,181.2 M651.0,177.8 L660.2,179.6 L664.4,179.2 L667.1,178.7 L668.9,178.3 L670.5,177.9 L672.0,177.4 L673.5,176.9 L675.0,176.5 L676.5,176.0 L678.0,175.5 L679.5,175.1 L681.0,174.6 L682.5,174.1 L684.0,173.7 L685.5,173.3 L687.0,172.8 L688.5,172.4 L690.1,172.0 L692.2,171.6 L695.2,171.2 L700.5,170.9 M703.5,168.1 L708.8,167.9 L711.8,167.7 L713.9,167.6 L715.5,167.5 L717.0,167.4 L718.5,167.3 L720.0,167.2 L721.5,167.2 L723.0,167.1 L724.5,167.1 L726.0,167.1 L727.5,167.2 L729.0,167.2 L730.5,167.3 L732.0,167.4 L733.5,167.5 L735.3,167.6 L737.6,167.7 L741.1,167.8 L747.9,168.0 M750.0,170.4 L755.3,170.6 L758.3,170.9 L760.4,171.2 L762.0,171.4 L763.5,171.7 L765.0,172.0 L766.5,172.2 L768.0,172.5 L769.5,172.8 L771.0,173.0 L772.5,173.3 L774.0,173.6 L775.5,173.8 L777.0,174.0 L778.5,174.3 L780.1,174.5 L781.9,174.7 L784.6,175.0 L788.8,175.2 L798.2,175.4 M788.8,176.9 L798.2,177.0 L802.4,177.0 L805.1,177.1 L806.9,177.2 L808.5,177.2 L810.0,177.3 L811.5,177.3 L813.0,177.3 L814.5,177.3 L816.0,177.3 L817.5,177.3 L819.0,177.3 L820.5,177.3 L822.0,177.2 L823.5,177.2 L825.0,177.1 L826.6,177.1 L828.4,177.0 L831.1,176.9 L835.3,176.9 L844.7,176.8 M839.8,175.4 L849.2,175.3 L853.4,175.2 L856.1,175.1 L857.9,175.0 L859.5,174.9 L861.0,174.8 L862.5,174.7 L864.0,174.6 L865.5,174.5 L867.0,174.4 L868.5,174.3 L870.0,174.3 L871.5,174.2 L873.0,174.1 L874.5,174.0 L876.0,174.0 L877.6,173.9 L879.7,173.9 L882.7,173.8 L888.0,173.8 M888.6,173.6 L895.4,173.6 L898.9,173.6 L901.2,173.6 L903.0,173.6 L904.5,173.6 L906.0,173.6 L907.5,173.7 L909.0,173.7 L910.5,173.7 L912.0,173.7 L913.5,173.7 L915.0,173.8 L916.5,173.8 L918.0,173.8 L919.5,173.9 L921.0,173.9 L922.5,173.9 L924.0,173.9 L925.5,174.0 L927.0,174.0 L928.5,174.0 L930.0,174.0 L931.5,174.0 L933.0,174.1 L934.5,174.1 L936.0,174.1 L937.5,174.1 L939.0,174.1 L940.5,174.1 L942.0,174.1 L943.5,174.1 L945.0,174.1 L946.5,174.1 L948.0,174.1 L949.5,174.1 L951.0,174.1 L952.5,174.1 L954.0,174.1 L955.5,174.1 L957.0,174.1 L958.5,174.1 L960.0,174.1 L961.5,174.1 L963.0,174.1 L964.5,174.1 L966.0,174.1 L967.5,174.1 L969.0,174.1 L970.5,174.1 L972.0,174.1 L973.5,174.1 L975.0,174.1 L976.6,174.1 L978.7,174.1 L981.7,174.1 L987.0,174.1"/>
    <path id="r1" d="M209.8,177.6 L219.2,176.4 L223.4,175.2 L226.1,174.2 L227.9,173.3 L229.5,172.5 L231.0,171.9 L232.5,171.4 L234.0,171.0 L235.5,170.8 L237.0,170.6 L238.5,170.6 L240.0,170.7 L241.5,170.8 L243.0,171.0 L244.5,171.2 L246.0,171.4 L247.8,171.7 L250.1,171.9 L253.6,172.1 L260.4,172.2 M277.5,150.9 L282.8,149.6 L285.8,148.3 L287.9,147.1 L289.5,146.0 L291.0,145.1 L292.5,144.3 L294.0,143.7 L295.5,143.2 L297.0,142.9 L298.5,142.8 L300.0,142.8 L301.5,143.0 L303.0,143.4 L304.5,143.9 L306.0,144.5 L307.6,145.3 L309.4,146.2 L312.1,147.2 L316.3,148.4 L325.7,149.6 M316.3,165.7 L325.7,167.5 L329.9,169.3 L332.6,171.1 L334.4,172.9 L336.0,174.8 L337.5,176.6 L339.0,178.4 L340.5,180.2 L342.0,181.9 L343.5,183.6 L345.0,185.3 L346.5,186.9 L348.0,188.5 L349.5,190.0 L351.0,191.5 L352.5,192.9 L354.1,194.2 L356.2,195.4 L359.2,196.5 L364.5,197.5 M365.5,206.1 L373.0,202.8 L376.7,201.3 L379.2,200.3 L381.0,199.7 L382.5,199.1 L384.0,198.4 L385.5,197.7 L387.0,196.9 L388.5,196.1 L390.0,195.2 L391.5,194.3 L393.0,193.1 L394.5,191.7 L396.0,189.9 L397.5,187.4 L399.0,183.5 L400.7,176.3 M404.8,197.7 L405.4,190.3 L407.5,185.8 L409.4,183.7 L410.9,182.0 L412.5,180.8 L414.0,179.8 L415.5,178.9 L417.0,178.0 L418.5,177.2 L420.0,176.4 L421.5,175.6 L423.0,174.8 L424.5,174.0 L426.0,173.3 L427.5,172.6 L429.0,171.7 L430.7,170.7 L432.4,169.3 L434.6,167.3 L437.8,163.6 L440.9,157.9 M459.8,156.4 L465.1,157.3 L468.4,157.5 L470.6,157.5 L472.4,157.4 L474.0,157.3 L475.5,157.1 L477.0,157.0 L478.5,156.9 L480.0,156.9 L481.5,156.9 L483.0,156.9 L484.5,157.0 L486.0,157.2 L487.5,157.4 L489.0,157.6 L490.5,157.9 L492.0,158.3 L493.9,158.9 L496.2,159.9 L499.9,161.7 L507.8,166.3 M556.5,188.1 L561.8,188.3 L564.8,188.4 L566.9,188.4 L568.5,188.5 L570.0,188.4 L571.5,188.4 L573.0,188.3 L574.5,188.2 L576.0,188.0 L577.5,187.9 L579.0,187.6 L580.5,187.4 L582.0,187.1 L583.5,186.8 L585.0,186.5 L586.6,186.1 L588.4,185.7 L591.1,185.3 L595.3,184.8 L604.7,184.4 M603.0,178.3 L608.3,177.7 L611.3,177.1 L613.4,176.4 L615.0,175.8 L616.5,175.2 L618.0,174.6 L619.5,174.0 L621.0,173.4 L622.5,172.8 L624.0,172.3 L625.5,171.7 L627.0,171.2 L628.5,170.6 L630.0,170.1 L631.5,169.6 L633.1,169.1 L634.9,168.7 L637.4,168.6 L640.6,168.6 L647.4,168.0 M656.8,166.4 L661.8,165.1 L665.0,164.5 L667.3,164.4 L669.0,164.5 L670.5,164.6 L672.0,164.8 L673.5,164.9 L675.0,165.1 L676.5,165.3 L678.0,165.5 L679.5,165.8 L681.0,166.0 L682.5,166.3 L684.0,166.6 L685.5,166.9 L687.0,167.2 L688.5,167.6 L690.2,167.9 L692.2,168.1 L695.2,168.5 L700.5,169.0 M703.5,172.9 L708.8,173.3 L711.8,173.7 L713.9,174.1 L715.5,174.5 L717.0,174.8 L718.5,175.2 L720.0,175.5 L721.5,175.9 L723.0,176.2 L724.5,176.5 L726.0,176.8 L727.5,177.1 L729.0,177.4 L730.5,177.7 L732.0,177.9 L733.5,178.1 L735.3,178.4 L737.6,178.6 L741.1,178.8 L747.9,178.9 M750.0,179.8 L755.3,179.8 L758.3,179.7 L760.4,179.7 L762.0,179.6 L763.5,179.6 L765.0,179.5 L766.5,179.4 L768.0,179.3 L769.5,179.1 L771.0,179.0 L772.5,178.9 L774.0,178.7 L775.5,178.6 L777.0,178.4 L778.5,178.2 L780.1,178.0 L781.9,177.9 L784.6,177.7 L788.8,177.5 L798.2,177.3 M788.8,175.2 L798.2,175.0 L802.4,174.8 L805.1,174.6 L806.9,174.4 L808.5,174.2 L810.0,174.0 L811.5,173.9 L813.0,173.7 L814.5,173.5 L816.0,173.4 L817.5,173.2 L819.0,173.1 L820.5,173.0 L822.0,172.9 L823.5,172.7 L825.0,172.6 L826.6,172.5 L828.4,172.5 L831.1,172.4 L835.3,172.3 L844.7,172.2 M839.8,172.1 L849.2,172.1 L853.4,172.2 L856.1,172.2 L857.9,172.3 L859.5,172.3 L861.0,172.4 L862.5,172.4 L864.0,172.5 L865.5,172.6 L867.0,172.6 L868.5,172.7 L870.0,172.8 L871.5,172.9 L873.0,172.9 L874.5,173.0 L876.0,173.1 L877.6,173.1 L879.7,173.2 L882.7,173.3 L888.0,173.4 M888.6,174.0 L895.4,174.0 L898.9,174.0 L901.2,174.1 L903.0,174.1 L904.5,174.1 L906.0,174.2 L907.5,174.2 L909.0,174.2 L910.5,174.2 L912.0,174.2 L913.5,174.3 L915.0,174.3 L916.5,174.3 L918.0,174.3 L919.5,174.3 L921.0,174.3 L922.5,174.3 L924.0,174.3 L925.5,174.3 L927.0,174.2 L928.5,174.2 L930.0,174.2 L931.5,174.2 L933.0,174.2 L934.5,174.2 L936.0,174.2 L937.5,174.2 L939.0,174.2 L940.5,174.1 L942.0,174.1 L943.5,174.1 L945.0,174.1 L946.5,174.1 L948.0,174.1 L949.5,174.1 L951.0,174.1 L952.5,174.1 L954.0,174.1 L955.5,174.1 L957.0,174.1 L958.5,174.1 L960.0,174.1 L961.5,174.1 L963.0,174.1 L964.5,174.1 L966.0,174.1 L967.5,174.1 L969.0,174.1 L970.5,174.1 L972.0,174.1 L973.5,174.1 L975.0,174.1 L976.6,174.1 L978.7,174.1 L981.7,174.1 L987.0,174.1"/>
    <path id="r2" d="M209.8,133.4 L219.2,133.3 L223.4,133.4 L226.1,133.8 L227.9,134.4 L229.5,135.2 L231.0,136.1 L232.5,137.3 L234.0,138.6 L235.5,140.0 L237.0,141.5 L238.5,143.1 L240.0,144.8 L241.5,146.6 L243.0,148.4 L244.5,150.2 L246.0,152.0 L247.8,153.8 L250.1,155.6 L253.6,157.4 L260.4,159.2 M273.9,182.5 L279.2,187.7 L281.8,190.1 L283.5,191.6 L285.0,192.9 L286.5,194.1 L288.0,195.2 L289.5,196.2 L291.0,197.1 L292.5,197.9 L294.0,198.6 L295.5,199.2 L297.0,199.7 L298.5,200.0 L300.1,200.3 L301.9,200.7 L303.9,201.2 L306.4,201.8 L310.6,202.4 L317.4,205.5 M316.3,189.1 L325.7,188.4 L329.9,187.7 L332.6,187.1 L334.4,186.5 L336.0,185.9 L337.5,185.4 L339.0,185.0 L340.5,184.6 L342.0,184.2 L343.5,183.8 L345.0,183.4 L346.5,183.1 L348.0,182.8 L349.5,182.4 L351.0,182.1 L352.5,181.7 L354.1,181.3 L356.2,180.9 L359.2,180.5 L364.5,180.0 M371.6,175.7 L377.4,171.7 L380.4,169.7 L382.4,168.4 L384.0,167.4 L385.5,166.4 L387.0,165.4 L388.5,164.4 L390.0,163.4 L391.5,162.3 L393.0,161.3 L394.5,160.4 L396.0,159.4 L397.5,158.5 L399.3,157.6 L401.6,156.8 L404.7,156.7 L407.0,158.3 L409.5,159.5 L409.6,160.8 L410.3,160.0 L411.1,158.5 L411.5,157.9 L412.5,156.1 L413.9,154.8 L414.8,153.8 L416.7,152.7 L418.0,152.2 L419.6,151.5 L421.3,151.2 L422.8,151.2 L424.4,151.2 L426.0,151.5 L427.5,151.9 L429.0,152.3 L430.5,152.9 L432.0,153.5 L433.5,154.3 L435.0,155.1 L436.5,156.1 L438.0,157.3 L439.5,159.0 L441.0,161.3 L442.5,164.9 L444.0,172.0 M451.3,176.6 L460.8,178.5 L464.4,179.1 L467.3,179.9 L469.4,180.9 L471.0,181.9 L472.5,182.9 L474.0,183.8 L475.5,184.6 L477.0,185.4 L478.5,186.2 L480.0,186.9 L481.5,187.6 L483.0,188.2 L484.5,188.7 L486.0,189.2 L487.5,189.7 L489.0,190.1 L490.5,190.5 L492.0,190.8 L493.6,191.0 L495.4,190.9 L497.3,190.7 L499.6,190.0 L502.4,188.4 L504.5,185.3 L507.4,181.4 L507.8,180.1 M504.2,181.1 L509.1,185.1 L512.9,187.1 L515.6,188.2 L518.0,188.9 L520.1,188.9 L521.9,188.6 L523.5,188.1 L525.1,187.5 L526.6,186.7 L528.2,185.8 L529.7,184.3 L531.5,182.9 L533.6,179.6 L535.7,176.0 M556.5,170.9 L561.8,170.3 L564.8,169.6 L566.9,168.9 L568.5,168.3 L570.0,167.7 L571.5,167.1 L573.0,166.5 L574.5,166.0 L576.0,165.5 L577.5,165.0 L579.0,164.5 L580.5,164.1 L582.0,163.7 L583.5,163.3 L585.0,163.0 L586.6,162.6 L588.4,162.4 L591.1,162.1 L595.3,161.9 L604.7,161.7 M603.0,161.9 L608.3,162.1 L611.3,162.3 L613.4,162.5 L615.0,162.8 L616.5,163.1 L618.0,163.5 L619.5,163.8 L621.0,164.2 L622.5,164.6 L624.0,165.0 L625.5,165.4 L627.0,165.9 L628.5,166.3 L630.0,166.8 L631.5,167.3 L633.0,167.8 L634.9,168.4 L637.5,169.0 L641.8,169.7 L651.2,170.7 M650.8,177.5 L660.2,178.2 L664.4,178.8 L667.1,179.2 L668.9,179.6 L670.5,179.9 L672.0,180.3 L673.5,180.6 L675.0,180.8 L676.5,181.1 L678.0,181.4 L679.5,181.6 L681.0,181.8 L682.5,182.0 L684.0,182.1 L685.5,182.2 L687.0,182.3 L688.5,182.4 L690.3,182.5 L692.6,182.6 L696.1,182.8 L702.9,183.4 M703.5,181.4 L708.8,181.2 L711.8,181.0 L713.9,180.7 L715.5,180.5 L717.0,180.2 L718.5,180.0 L720.0,179.7 L721.5,179.4 L723.0,179.1 L724.5,178.8 L726.0,178.4 L727.5,178.1 L729.0,177.8 L730.5,177.5 L732.0,177.1 L733.5,176.8 L735.3,176.5 L737.6,176.1 L741.1,175.8 L747.9,175.5 M750.0,172.2 L755.3,172.0 L758.3,171.8 L760.4,171.5 L762.0,171.3 L763.5,171.1 L765.0,171.0 L766.5,170.8 L768.0,170.6 L769.5,170.5 L771.0,170.4 L772.5,170.2 L774.0,170.1 L775.5,170.0 L777.0,170.0 L778.5,169.9 L780.1,169.8 L781.9,169.8 L784.6,169.8 L788.8,169.8 L798.2,169.8 M788.8,170.3 L798.2,170.5 L802.4,170.6 L805.1,170.7 L806.9,170.8 L808.5,171.0 L810.0,171.1 L811.5,171.2 L813.0,171.4 L814.5,171.5 L816.0,171.7 L817.5,171.8 L819.0,172.0 L820.5,172.2 L822.0,172.3 L823.5,172.5 L825.0,172.6 L826.6,172.8 L828.4,172.9 L831.1,173.1 L835.3,173.2 L844.7,173.4 M839.8,174.9 L849.2,175.0 L853.4,175.0 L856.1,175.1 L857.9,175.1 L859.5,175.2 L861.0,175.2 L862.5,175.3 L864.0,175.3 L865.5,175.3 L867.0,175.3 L868.5,175.4 L870.0,175.4 L871.5,175.4 L873.0,175.4 L874.5,175.4 L876.0,175.3 L877.6,175.3 L879.7,175.3 L882.7,175.3 L888.0,175.3 M888.6,174.9 L895.4,174.8 L898.9,174.8 L901.2,174.7 L903.0,174.7 L904.5,174.6 L906.0,174.6 L907.5,174.6 L909.0,174.5 L910.5,174.5 L912.0,174.4 L913.5,174.4 L915.0,174.4 L916.5,174.3 L918.0,174.3 L919.5,174.3 L921.0,174.3 L922.5,174.2 L924.0,174.2 L925.5,174.2 L927.0,174.2 L928.5,174.2 L930.0,174.2 L931.5,174.1 L933.0,174.1 L934.5,174.1 L936.0,174.1 L937.5,174.1 L939.0,174.1 L940.5,174.1 L942.0,174.1 L943.5,174.1 L945.0,174.1 L946.5,174.1 L948.0,174.1 L949.5,174.1 L951.0,174.1 L952.5,174.1 L954.0,174.1 L955.5,174.1 L957.0,174.1 L958.5,174.1 L960.0,174.1 L961.5,174.1 L963.0,174.1 L964.5,174.1 L966.0,174.1 L967.5,174.1 L969.0,174.1 L970.5,174.1 L972.0,174.1 L973.5,174.1 L975.0,174.1 L976.6,174.1 L978.7,174.1 L981.7,174.1 L987.0,174.1"/>
    <path id="rb" d="M209.8,174.1 L219.2,174.1 L223.4,174.1 L226.1,174.1 L227.9,174.1 L229.5,174.1 L231.0,174.1 L232.5,174.1 L234.0,174.1 L235.5,174.1 L237.0,174.1 L238.5,174.1 L240.0,174.1 L241.5,174.1 L243.0,174.1 L244.5,174.1 L246.0,174.1 L247.8,174.1 L250.1,174.1 L253.6,174.1 L260.4,174.1 M277.5,174.1 L282.8,174.1 L285.8,174.1 L287.9,174.1 L289.5,174.1 L291.0,174.1 L292.5,174.1 L294.0,174.1 L295.5,174.1 L297.0,174.1 L298.5,174.1 L300.0,174.1 L301.5,174.1 L303.0,174.1 L304.5,174.1 L306.0,174.1 L307.6,174.1 L309.4,174.1 L312.1,174.1 L316.3,174.1 L325.7,174.1 M316.3,174.1 L325.7,174.1 L329.9,174.1 L332.6,174.1 L334.4,174.1 L336.0,174.1 L337.5,174.1 L339.0,174.1 L340.5,174.1 L342.0,174.1 L343.5,174.1 L345.0,174.1 L346.5,174.1 L348.0,174.1 L349.5,174.1 L351.0,174.1 L352.5,174.1 L354.1,174.1 L356.2,174.1 L359.2,174.1 L364.5,174.1 M370.5,183.2 L376.6,178.6 L380.7,176.8 L382.8,175.6 L384.9,174.8 L386.8,174.4 L388.4,174.3 L390.0,174.2 L391.5,174.1 L393.0,174.1 L394.5,174.1 L396.0,174.1 L397.5,174.1 L399.0,174.1 L400.5,174.1 L402.0,174.1 L403.5,174.1 L405.0,174.1 L406.5,174.1 L408.0,174.1 L409.5,174.1 L411.0,174.1 L412.5,174.1 L414.0,174.1 L415.5,174.1 L417.0,174.1 L418.5,174.1 L420.0,174.1 L421.5,174.1 L423.0,174.1 L424.5,174.1 L426.0,174.1 L427.5,174.1 L429.0,174.1 L430.5,174.1 L432.0,174.1 L433.5,174.1 L435.1,174.0 L436.6,173.9 L438.3,173.6 L439.9,173.2 L441.6,172.8 L444.4,172.1 L447.4,169.8 L450.7,167.0 M451.3,174.1 L460.7,174.1 L464.9,174.1 L467.6,174.1 L469.4,174.1 L471.0,174.1 L472.5,174.1 L474.0,174.1 L475.5,174.1 L477.0,174.1 L478.5,174.1 L480.0,174.1 L481.5,174.1 L483.0,174.1 L484.5,174.1 L486.0,174.1 L487.5,174.1 L489.1,174.1 L490.9,174.1 L493.6,174.1 L497.8,174.1 L507.2,174.1 M556.5,174.1 L561.8,174.1 L564.8,174.1 L566.9,174.1 L568.5,174.1 L570.0,174.1 L571.5,174.1 L573.0,174.1 L574.5,174.1 L576.0,174.1 L577.5,174.1 L579.0,174.1 L580.5,174.1 L582.0,174.1 L583.5,174.1 L585.0,174.1 L586.6,174.1 L588.4,174.1 L591.1,174.1 L595.3,174.1 L604.7,174.1 M603.0,174.1 L608.3,174.1 L611.3,174.1 L613.4,174.1 L615.0,174.1 L616.5,174.1 L618.0,174.1 L619.5,174.1 L621.0,174.1 L622.5,174.1 L624.0,174.1 L625.5,174.1 L627.0,174.1 L628.5,174.1 L630.0,174.1 L631.5,174.1 L633.1,174.1 L634.9,174.1 L637.6,174.1 L641.8,174.1 L651.2,174.1 M658.5,174.1 L663.8,174.1 L666.8,174.1 L668.9,174.1 L670.5,174.1 L672.0,174.1 L673.5,174.1 L675.0,174.1 L676.5,174.1 L678.0,174.1 L679.5,174.1 L681.0,174.1 L682.5,174.1 L684.0,174.1 L685.5,174.1 L687.0,174.1 L688.5,174.1 L690.1,174.1 L692.2,174.1 L695.2,174.1 L700.5,174.1 M703.5,174.1 L708.8,174.1 L711.8,174.1 L713.9,174.1 L715.5,174.1 L717.0,174.1 L718.5,174.1 L720.0,174.1 L721.5,174.1 L723.0,174.1 L724.5,174.1 L726.0,174.1 L727.5,174.1 L729.0,174.1 L730.5,174.1 L732.0,174.1 L733.5,174.1 L735.3,174.1 L737.6,174.1 L741.1,174.1 L747.9,174.1 M750.0,174.1 L755.3,174.1 L758.3,174.1 L760.4,174.1 L762.0,174.1 L763.5,174.1 L765.0,174.1 L766.5,174.1 L768.0,174.1 L769.5,174.1 L771.0,174.1 L772.5,174.1 L774.0,174.1 L775.5,174.1 L777.0,174.1 L778.5,174.1 L780.1,174.1 L781.9,174.1 L784.6,174.1 L788.8,174.1 L798.2,174.1 M788.8,174.1 L798.2,174.1 L802.4,174.1 L805.1,174.1 L806.9,174.1 L808.5,174.1 L810.0,174.1 L811.5,174.1 L813.0,174.1 L814.5,174.1 L816.0,174.1 L817.5,174.1 L819.0,174.1 L820.5,174.1 L822.0,174.1 L823.5,174.1 L825.0,174.1 L826.6,174.1 L828.4,174.1 L831.1,174.1 L835.3,174.1 L844.7,174.1 M839.8,174.1 L849.2,174.1 L853.4,174.1 L856.1,174.1 L857.9,174.1 L859.5,174.1 L861.0,174.1 L862.5,174.1 L864.0,174.1 L865.5,174.1 L867.0,174.1 L868.5,174.1 L870.0,174.1 L871.5,174.1 L873.0,174.1 L874.5,174.1 L876.0,174.1 L877.6,174.1 L879.7,174.1 L882.7,174.1 L888.0,174.1 M888.6,174.1 L895.4,174.1 L898.9,174.1 L901.2,174.1 L903.0,174.1 L904.5,174.1 L906.0,174.1 L907.5,174.1 L909.0,174.1 L910.5,174.1 L912.0,174.1 L913.5,174.1 L915.0,174.1 L916.5,174.1 L918.0,174.1 L919.5,174.1 L921.0,174.1 L922.5,174.1 L924.0,174.1 L925.5,174.1 L927.0,174.1 L928.5,174.1 L930.0,174.1 L931.5,174.1 L933.0,174.1 L934.5,174.1 L936.0,174.1 L937.5,174.1 L939.0,174.1 L940.5,174.1 L942.0,174.1 L943.5,174.1 L945.0,174.1 L946.5,174.1 L948.0,174.1 L949.5,174.1 L951.0,174.1 L952.5,174.1 L954.0,174.1 L955.5,174.1 L957.0,174.1 L958.5,174.1 L960.0,174.1 L961.5,174.1 L963.0,174.1 L964.5,174.1 L966.0,174.1 L967.5,174.1 L969.0,174.1 L970.5,174.1 L972.0,174.1 L973.5,174.1 L975.0,174.1 L976.6,174.1 L978.7,174.1 L981.7,174.1 L987.0,174.1"/>
    <path id="bl8" d="M221.6,215.5 L221.6,102.4 M224.1,99.9 L267.5,99.9 L271.9,100.0 L276.2,100.4 M221.7,216.5 L221.7,216.2 L221.6,215.8 L221.6,215.5 L221.6,215.5 M254.1,190.8 L268.7,190.8 L270.5,190.7 M281.8,177.0 L282.0,174.6 L282.0,143.3 L281.9,140.9 L281.6,138.7 M254.1,190.8 L254.1,190.8 M344.2,92.6 L346.5,92.8 M328.9,112.8 L328.5,110.7 M328.4,108.5 L328.4,108.5 M328.2,215.5 L328.2,132.8 M330.7,130.3 L357.4,130.3 L357.8,130.3 M328.2,215.8 L328.2,215.5 L328.2,215.5 M372.6,192.2 L372.6,190.7 M375.1,188.1 L400.4,188.1 L401.2,188.2 M409.3,195.6 L410.6,195.9 M412.0,196.0 L413.6,196.1 M421.8,191.8 L421.8,191.1 M373.8,158.6 L374.1,154.2 M412.4,128.9 L416.2,129.0 L419.9,129.3 L423.5,129.9 L426.8,130.6 M422.2,159.5 L422.1,158.5 M409.9,162.5 L411.5,162.8 M415.4,163.5 L417.6,163.8 M419.7,164.2 L420.9,164.4 M422.4,164.6 L424.1,164.9 M427.8,165.5 L429.7,166.0 M373.8,199.9 L372.9,196.2 L372.6,192.2 L372.6,192.2 M463.4,177.1 L463.3,173.6 L463.4,170.2 M504.8,192.0 L507.0,192.2 L509.4,192.0 M577.2,92.6 L579.5,92.8 M561.9,112.8 L561.5,110.7 M561.4,108.5 L561.4,108.5 M561.2,215.5 L561.2,132.8 M563.7,130.3 L590.4,130.3 L590.8,130.3 M561.2,215.8 L561.2,215.5 L561.2,215.5 M607.9,245.8 L607.9,132.8 M610.5,130.3 L637.1,130.3 L637.5,130.3 M640.4,138.5 L640.5,138.3 M662.6,174.0 L662.5,171.5 L662.3,169.2 M662.0,167.1 L661.5,165.1 M647.6,191.6 L649.3,192.0 M662.6,174.0 L662.6,174.0 M708.5,215.5 L708.5,102.4 M711.0,99.9 L737.7,99.9 M770.7,92.6 L773.0,92.8 M755.4,112.8 L755.0,110.7 M754.9,108.5 L754.9,108.5 M754.7,215.5 L754.7,132.8 M757.2,130.3 L783.9,130.3 L784.3,130.3 M754.7,215.8 L754.7,215.5 L754.7,215.5 M851.7,215.8 L851.7,215.5 L851.7,167.4 L851.6,165.8 M800.9,215.5 L800.9,132.8 M803.5,130.3 L830.1,130.3 L830.5,130.3 M833.1,139.8 L833.2,139.8 L833.3,139.7 M856.3,129.0 L859.0,129.3 M940.1,192.5 L941.7,192.8 L943.4,193.0 M961.9,187.1 L962.3,187.2 M896.5,181.7 L896.2,178.5 L896.1,175.1 L896.2,171.7 L896.4,168.3 M929.2,165.7 L948.4,165.7"/>
    <path id="bl9" d="M221.6,102.4 L221.6,102.1 L221.7,101.7 L221.7,101.4 M281.5,179.2 L281.8,177.0 M328.5,106.2 L328.9,104.1 M342.0,92.8 L344.2,92.6 M328.2,132.8 L328.2,132.4 L328.3,132.1 M330.4,130.3 L330.7,130.3 M372.6,190.7 L372.6,190.3 L372.7,189.9 M374.4,188.2 L374.7,188.2 L375.1,188.1 M413.6,196.1 L414.8,196.0 M416.9,195.8 L417.9,195.6 M421.8,192.5 L421.8,191.8 M401.6,129.8 L406.8,129.1 M498.1,129.7 L502.6,129.1 M561.5,106.2 L561.9,104.1 M575.0,92.8 L577.2,92.6 M561.2,132.8 L561.2,132.4 L561.3,132.1 M563.3,130.3 L563.7,130.3 M610.1,130.3 L610.5,130.3 M640.5,138.3 L640.7,138.2 M651.1,192.2 L653.1,192.0 M661.5,183.0 L662.0,181.0 M662.3,178.8 L662.5,176.5 L662.6,174.0 M755.0,106.2 L755.4,104.1 M768.5,92.8 L770.7,92.6 M754.7,132.8 L754.7,132.4 L754.8,132.1 M756.9,130.3 L757.2,130.3 M803.1,130.3 L803.5,130.3 M833.3,139.7 L833.4,139.6 L833.4,139.5 M945.2,193.0 L946.7,193.0 M948.1,192.9 L949.6,192.7 M951.0,192.4 L952.3,192.1 M961.3,187.2 L961.6,187.1 L961.9,187.1 M896.8,165.1 L897.4,162.0 L898.2,159.1 M949.1,165.0 L949.1,164.8"/>
    <path id="bl10" d="M221.7,101.4 L221.9,101.1 M223.4,100.0 L223.7,99.9 L224.1,99.9 M328.4,108.5 L328.5,106.2 M328.3,132.1 L328.4,131.7 M330.0,130.3 L330.4,130.3 M372.7,189.9 L372.7,189.6 M374.1,188.3 L374.4,188.2 M415.9,195.9 L416.9,195.8 M374.1,154.2 L374.9,150.1 L376.4,146.4 M388.1,134.5 L392.2,132.5 M396.7,130.9 L401.6,129.8 M463.7,166.9 L464.2,163.6 L464.8,160.5 L465.7,157.5 M493.9,130.6 L498.1,129.7 M517.2,184.4 L517.3,183.8 M518.8,181.4 L519.5,181.3 M561.4,108.5 L561.5,106.2 M561.3,132.1 L561.4,131.7 M563.0,130.3 L563.3,130.3 M607.9,132.8 L607.9,132.4 M609.7,130.3 L610.1,130.3 M662.0,181.0 L662.3,178.8 M710.6,99.9 L711.0,99.9 M754.9,108.5 L755.0,106.2 M754.8,132.1 L754.9,131.7 M756.5,130.3 L756.9,130.3 M800.9,132.8 L801.0,132.4 M802.7,130.3 L803.1,130.3 M833.4,139.5 L833.5,139.4 M845.3,130.1 L849.2,129.2 M961.0,187.3 L961.3,187.2 M896.4,168.3 L896.8,165.1 M925.5,130.7 L929.7,129.7 L934.2,129.1 M949.0,165.2 L949.1,165.0"/>
    <path id="bl11" d="M221.9,101.1 L222.0,100.8 M222.8,100.2 L223.1,100.1 L223.4,100.0 M270.5,190.7 L272.2,190.3 L273.9,189.7 L275.4,188.9 M279.2,184.8 L280.2,183.1 L280.9,181.2 L281.5,179.2 M328.9,104.1 L329.5,102.1 M336.1,94.6 L337.9,93.7 L339.9,93.1 L342.0,92.8 M328.4,131.7 L328.5,131.5 M329.1,130.7 L329.4,130.6 L329.7,130.4 L330.0,130.3 M372.7,189.6 L372.9,189.3 M373.8,188.4 L374.1,188.3 M414.8,196.0 L415.9,195.9 M417.9,195.6 L418.8,195.3 M421.3,193.6 L421.6,193.1 L421.8,192.5 M384.4,136.9 L388.1,134.5 M392.2,132.5 L396.7,130.9 M406.8,129.1 L412.4,128.9 M463.4,170.2 L463.7,166.9 M465.7,157.5 L466.7,154.6 L468.5,150.7 L470.5,147.2 M489.8,132.0 L493.9,130.6 M502.6,129.1 L507.2,128.9 M509.4,192.0 L511.5,191.3 M516.1,186.8 L517.2,184.4 M517.3,183.8 L517.6,182.9 L517.9,182.2 M561.9,104.1 L562.5,102.1 M569.1,94.6 L570.9,93.7 L572.9,93.1 L575.0,92.8 M561.4,131.7 L561.5,131.5 M562.1,130.7 L562.4,130.6 L562.7,130.4 L563.0,130.3 M607.9,132.4 L608.0,132.1 L608.1,131.7 L608.2,131.5 M609.1,130.6 L609.4,130.4 L609.7,130.3 M648.7,131.2 L652.1,130.0 L656.0,129.2 L660.2,128.9 M653.1,192.0 L654.8,191.6 L656.4,190.8 M660.1,186.6 L660.8,184.9 L661.5,183.0 M708.5,102.4 L708.5,102.1 L708.6,101.7 L708.7,101.4 L708.8,101.1 L709.0,100.8 M709.7,100.2 L710.0,100.1 L710.3,100.0 L710.6,99.9 M755.4,104.1 L756.0,102.1 M762.6,94.6 L764.4,93.7 L766.4,93.1 L768.5,92.8 M754.9,131.7 L755.0,131.5 M755.6,130.7 L755.9,130.6 L756.2,130.4 L756.5,130.3 M801.0,132.4 L801.0,132.1 L801.1,131.7 L801.2,131.5 M802.1,130.6 L802.4,130.4 L802.7,130.3 M841.7,131.5 L845.3,130.1 M849.2,129.2 L853.6,128.9 M946.7,193.0 L948.1,192.9 M949.6,192.7 L951.0,192.4 M952.3,192.1 L953.6,191.7 L954.9,191.2 L956.1,190.6 L957.2,190.0 M960.8,187.4 L961.0,187.3 M898.2,159.1 L899.1,156.3 L900.8,152.1 L902.8,148.3 M917.7,134.0 L921.5,132.1 L925.5,130.7 M934.2,129.1 L938.8,128.9 M948.4,165.7 L948.6,165.7 L948.8,165.6"/>
    <path id="bl12" d="M222.0,100.8 L222.3,100.6 L222.5,100.4 L222.8,100.2 M275.4,188.9 L276.8,187.7 L278.1,186.4 L279.2,184.8 M329.5,102.1 L330.4,100.3 L331.5,98.6 L332.8,97.0 L334.4,95.7 L336.1,94.6 M328.5,131.5 L328.7,131.2 L328.9,130.9 L329.1,130.7 M372.9,189.3 L373.0,189.1 L373.3,188.8 L373.5,188.6 L373.8,188.4 M418.8,195.3 L419.6,195.0 L420.3,194.6 L420.8,194.1 L421.3,193.6 M376.4,146.4 L378.5,142.9 L381.1,139.8 L384.4,136.9 M470.5,147.2 L473.0,143.9 L475.7,140.9 L478.8,138.2 L482.2,135.8 L485.9,133.7 L489.8,132.0 M511.5,191.3 L513.3,190.2 L514.8,188.7 L516.1,186.8 M517.9,182.2 L518.3,181.7 L518.8,181.4 M562.5,102.1 L563.4,100.3 L564.5,98.6 L565.8,97.0 L567.4,95.7 L569.1,94.6 M561.5,131.5 L561.7,131.2 L561.9,130.9 L562.1,130.7 M608.2,131.5 L608.4,131.2 L608.6,130.9 L608.8,130.7 L609.1,130.6 M640.7,138.2 L642.9,135.4 L645.6,133.0 L648.7,131.2 M656.4,190.8 L657.8,189.7 L659.0,188.3 L660.1,186.6 M709.0,100.8 L709.2,100.6 L709.4,100.4 L709.7,100.2 M756.0,102.1 L756.9,100.3 L758.0,98.6 L759.3,97.0 L760.9,95.7 L762.6,94.6 M755.0,131.5 L755.2,131.2 L755.4,130.9 L755.6,130.7 M801.2,131.5 L801.4,131.2 L801.6,130.9 L801.8,130.7 L802.1,130.6 M833.5,139.4 L835.8,136.2 L838.6,133.6 L841.7,131.5 M957.2,190.0 L958.3,189.4 L959.3,188.6 L960.2,187.8 L960.5,187.6 L960.8,187.4 M902.8,148.3 L905.2,144.8 L907.8,141.6 L910.8,138.7 L914.1,136.2 L917.7,134.0 M948.8,165.6 L948.9,165.5 L949.0,165.4 L949.0,165.2"/>
    <path id="bl7" d="M276.2,100.4 L280.4,101.1 M284.3,102.0 L288.1,103.2 M253.9,190.8 L254.1,190.8 M328.5,110.7 L328.4,108.5 M357.8,130.3 L358.1,130.3 M328.3,216.2 L328.2,215.8 M401.2,188.2 L401.8,188.3 M422.2,160.0 L422.2,159.5 M418.7,164.0 L419.7,164.2 M465.7,189.9 L464.8,186.9 M464.2,183.8 L463.7,180.5 M511.9,129.1 L516.4,129.7 M519.5,181.3 L520.2,181.4 L546.5,185.8 M561.5,110.7 L561.4,108.5 M590.8,130.3 L591.1,130.3 M561.3,216.2 L561.2,215.8 M637.5,130.3 L637.8,130.3 M640.2,138.6 L640.3,138.5 L640.4,138.5 M663.9,129.1 L667.5,129.7 M662.3,169.2 L662.0,167.1 M649.3,192.0 L651.1,192.2 M755.0,110.7 L754.9,108.5 M784.3,130.3 L784.6,130.3 M754.8,216.2 L754.7,215.8 M851.8,216.2 L851.7,215.8 M851.6,165.8 L851.4,164.2 L851.1,162.8 M801.0,215.8 L800.9,215.5 M830.5,130.3 L830.9,130.3 M833.0,139.7 L833.1,139.8 M853.6,128.9 L856.3,129.0 M859.0,129.3 L861.6,129.8 L864.1,130.6 M962.3,187.2 L962.6,187.2 M897.0,184.9 L896.5,181.7 M942.3,129.1 L945.8,129.5 M949.1,164.8 L949.0,164.5 M948.9,164.1 L948.8,163.7 L948.7,163.3"/>
    <path id="bl5" d="M280.4,101.1 L284.3,102.0 M288.1,103.2 L291.7,104.6 M346.5,92.8 L348.6,93.1 L350.5,93.7 L352.4,94.6 M329.5,114.8 L328.9,112.8 M406.9,194.9 L408.1,195.3 M421.8,191.1 L421.5,190.4 M377.4,171.8 L375.4,167.8 L374.2,163.4 M426.8,130.6 L430.0,131.6 L433.1,132.7 M422.1,158.5 L421.9,157.7 M406.4,161.4 L407.3,161.8 L408.5,162.2 L409.9,162.5 M411.5,162.8 L413.3,163.2 M418.0,163.9 L418.7,164.0 M433.2,167.0 L435.0,167.6 M464.8,186.9 L464.2,183.8 M463.7,180.5 L463.4,177.1 M516.4,129.7 L520.7,130.7 L524.9,132.1 L528.8,133.9 M517.8,165.2 L517.2,162.8 L516.8,161.9 L516.4,161.0 M470.6,200.6 L468.5,196.9 M579.5,92.8 L581.6,93.1 M583.5,93.7 L585.4,94.6 M562.5,114.8 L561.9,112.8 M608.0,246.6 L607.9,246.2 M637.8,130.3 L638.2,130.4 M640.0,138.5 L640.1,138.6 M671.0,130.7 L674.3,132.1 L677.5,133.9 M661.5,165.1 L660.8,163.3 L660.1,161.7 M644.7,189.9 L646.1,190.9 M738.0,99.9 L738.4,100.0 M708.8,216.8 L708.7,216.5 L708.6,216.2 L708.5,215.8 L708.5,215.5 M773.0,92.8 L775.1,93.1 L777.0,93.7 L778.9,94.6 M756.0,114.8 L755.4,112.8 M801.0,216.2 L801.0,215.8 M830.9,130.3 L831.2,130.4 M832.9,139.6 L833.0,139.7 M935.5,191.1 L936.9,191.7 L938.5,192.2 L940.1,192.5 M898.7,191.1 L897.7,188.0 M949.2,130.2 L952.5,131.2 M928.9,165.7 L929.0,165.7 M948.2,161.8 L947.8,160.9"/>
    <path id="bl3" d="M291.7,104.6 L295.1,106.3 M253.5,190.6 L253.7,190.7 M352.4,94.6 L354.1,95.7 M330.4,116.6 L329.5,114.8 M401.8,188.3 L402.3,188.6 M405.9,194.4 L406.9,194.9 M421.9,157.7 L421.5,156.9 M405.6,161.0 L406.4,161.4 M532.6,136.1 L536.1,138.6 M585.4,94.6 L587.1,95.7 M563.4,116.6 L562.5,114.8 M608.2,247.2 L608.1,246.9 M638.2,130.4 L638.5,130.6 M639.9,138.5 L640.0,138.5 M677.5,133.9 L680.6,136.1 M659.0,159.9 L657.7,158.6 M739.0,100.2 L739.3,100.4 M778.9,94.6 L780.6,95.7 M756.9,116.6 L756.0,114.8 M850.6,161.5 L849.9,160.3 M801.4,217.1 L801.2,216.8 M831.2,130.4 L831.5,130.6 M832.7,139.4 L832.8,139.5 M962.9,187.4 L963.2,187.6 M958.8,134.0 L961.7,135.8 M964.5,137.8 L967.2,140.0"/>
    <path id="bl2" d="M295.1,106.3 L298.2,108.2 M280.3,134.8 L279.4,133.1 M278.3,131.5 L277.0,130.2 M331.5,118.3 L330.4,116.6 M358.7,130.6 L359.0,130.7 M328.7,217.1 L328.5,216.8 M404.3,193.1 L405.0,193.8 L405.9,194.4 M440.9,137.3 L443.1,139.2 M421.5,156.9 L421.1,156.2 L420.4,155.6 M380.3,209.3 L377.5,206.4 M518.5,166.8 L518.2,166.4 M547.2,186.0 L547.7,186.3 M478.9,209.9 L475.8,207.1 L473.0,204.0 M564.5,118.3 L563.4,116.6 M591.7,130.6 L592.0,130.7 M561.7,217.1 L561.5,216.8 M608.4,247.5 L608.2,247.2 M638.5,130.6 L638.7,130.7 M639.8,138.4 L639.9,138.5 M660.1,161.7 L659.0,159.9 M739.3,100.4 L739.5,100.6 M758.0,118.3 L756.9,116.6 M785.2,130.6 L785.5,130.7 M755.2,217.1 L755.0,216.8 M852.2,217.1 L852.0,216.8 M849.9,160.3 L849.1,159.2 M831.5,130.6 L831.7,130.7 M932.9,189.7 L934.1,190.4 M928.7,165.6 L928.8,165.6"/>
    <path id="bl1" d="M222.3,217.3 L222.0,217.1 M279.4,133.1 L278.3,131.5 M332.8,119.9 L331.5,118.3 M421.5,190.4 L421.2,189.8 M435.9,134.1 L438.5,135.6 L440.9,137.3 M422.8,160.8 L422.5,160.5 M445.2,172.9 L447.2,174.6 M377.5,206.4 L375.3,203.3 M536.1,138.6 L539.2,141.3 M516.4,161.0 L515.8,160.2 M565.8,119.9 L564.5,118.3 M642.8,214.0 L640.7,211.6 M608.6,247.7 L608.4,247.5 M638.7,130.7 L639.0,130.9 M639.7,138.3 L639.8,138.4 M646.1,190.9 L647.6,191.6 M709.2,217.3 L709.0,217.1 M759.3,119.9 L758.0,118.3 M801.6,217.3 L801.4,217.1 M831.7,130.7 L832.0,130.9 M832.7,139.3 L832.7,139.4 M872.9,135.5 L874.8,137.2 M931.8,188.9 L932.9,189.7 M906.4,204.8 L903.8,201.5 M961.7,135.8 L964.5,137.8 M928.6,165.5 L928.7,165.6"/>
    <path id="bl4" d="M222.0,217.1 L221.9,216.8 M281.1,136.7 L280.3,134.8 M358.4,130.4 L358.7,130.6 M328.5,216.8 L328.4,216.5 M433.1,132.7 L435.9,134.1 M422.5,160.5 L422.2,160.0 M435.0,167.6 L437.9,168.7 L440.6,170.0 M375.3,203.3 L373.8,199.9 M466.7,192.9 L465.7,189.9 M528.8,133.9 L532.6,136.1 M518.2,166.4 L517.9,165.9 M501.1,190.5 L502.9,191.4 M468.5,196.9 L466.7,192.9 M591.4,130.4 L591.7,130.6 M561.5,216.8 L561.4,216.5 M608.1,246.9 L608.0,246.6 M738.4,100.0 L738.7,100.1 L739.0,100.2 M709.0,217.1 L708.8,216.8 M785.0,130.4 L785.2,130.6 M755.0,216.8 L754.9,216.5 M852.0,216.8 L851.9,216.5 M851.1,162.8 L850.6,161.5 M801.2,216.8 L801.1,216.5 L801.0,216.2 M832.8,139.5 L832.9,139.6 M864.1,130.6 L866.5,131.5 L868.8,132.6 L870.9,134.0 M934.1,190.4 L935.5,191.1 M903.8,201.5 L901.7,197.9 L899.8,194.0 M955.7,132.4 L958.8,134.0 M928.8,165.6 L928.9,165.7 M948.6,162.8 L948.2,161.8 M947.8,160.9 L947.3,160.0"/>
    <path id="bl6" d="M221.9,216.8 L221.7,216.5 M281.6,138.7 L281.1,136.7 M253.7,190.7 L253.9,190.8 M358.1,130.3 L358.4,130.4 M328.4,216.5 L328.3,216.2 M408.1,195.3 L409.3,195.6 M410.6,195.9 L412.0,196.0 M374.2,163.4 L373.8,158.6 M413.3,163.2 L415.4,163.5 M417.6,163.8 L418.0,163.9 M420.9,164.4 L422.4,164.6 M424.1,164.9 L426.0,165.2 L427.8,165.5 M429.7,166.0 L431.5,166.4 L433.2,167.0 M440.6,170.0 L443.0,171.4 M507.2,128.9 L511.9,129.1 M517.9,165.9 L517.8,165.2 M502.9,191.4 L504.8,192.0 M546.5,185.8 L547.2,186.0 M466.7,192.9 L466.7,192.9 M581.6,93.1 L583.5,93.7 M591.1,130.3 L591.4,130.4 M561.4,216.5 L561.3,216.2 M607.9,246.2 L607.9,245.8 M640.1,138.6 L640.2,138.6 M660.2,128.9 L663.9,129.1 M667.5,129.7 L671.0,130.7 M737.7,99.9 L738.0,99.9 M708.5,215.5 L708.5,215.5 M784.6,130.3 L785.0,130.4 M754.9,216.5 L754.8,216.2 M851.9,216.5 L851.8,216.2 M943.4,193.0 L945.2,193.0 M962.6,187.2 L962.9,187.4 M899.8,194.0 L898.7,191.1 M897.7,188.0 L897.0,184.9 M938.8,128.9 L942.3,129.1 M945.8,129.5 L949.2,130.2 M952.5,131.2 L955.7,132.4 M929.0,165.7 L929.2,165.7 M949.0,164.5 L948.9,164.1 M948.7,163.3 L948.6,162.8"/>
    <path id="bs2" d="M305.9,115.2 L308.0,118.0 M222.5,217.5 L222.3,217.3 M357.0,98.6 L358.1,100.3 L359.5,131.2 M329.1,217.5 L328.9,217.3 M402.3,188.6 L402.7,189.0 M403.7,192.4 L404.3,193.1 M423.3,161.1 L422.8,160.8 M383.6,211.9 L380.3,209.3 M541.9,144.2 L544.1,147.3 M519.0,167.1 L518.5,166.8 M482.2,212.3 L478.9,209.9 M590.0,98.6 L591.1,100.3 L592.4,131.2 M562.1,217.5 L561.9,217.3 M609.1,248.1 L608.8,247.9 M639.7,138.0 L639.7,138.2 M686.0,141.4 L688.3,144.5 M642.3,187.0 L643.4,188.6 M709.4,217.5 L709.2,217.3 M783.5,98.6 L784.6,100.3 L786.0,131.2 M755.6,217.5 L755.4,217.3 M852.6,217.5 L852.4,217.3 M848.2,158.3 L847.2,157.5 M801.8,217.5 L801.6,217.3 M832.7,138.9 L832.7,139.1 M963.5,187.8 L963.7,188.1 M976.8,204.8 L976.9,205.1 M912.5,210.4 L909.2,207.8"/>
    <path id="bs3" d="M308.0,118.0 L309.7,120.9 M277.0,130.2 L275.5,129.1 M253.3,190.3 L253.4,190.5 M358.1,100.3 L359.0,102.1 M336.1,122.4 L334.4,121.3 M420.0,188.9 L419.1,188.6 M389.9,181.6 L388.3,180.9 M420.4,155.6 L419.6,155.0 M404.5,159.7 L404.9,160.4 M448.9,176.4 L450.4,178.4 M387.5,214.2 L383.6,211.9 M544.1,147.3 L546.0,150.6 M513.5,158.0 L512.6,157.4 M485.9,214.5 L482.2,212.3 M591.1,100.3 L592.0,102.1 M569.1,122.4 L567.4,121.3 M562.4,217.7 L562.1,217.5 M639.3,131.5 L639.5,131.7 M639.6,137.9 L639.7,138.0 M683.4,138.6 L686.0,141.4 M657.7,158.6 L656.3,157.5 M643.4,188.6 L644.7,189.9 M739.9,101.1 L740.0,101.4 M784.6,100.3 L785.5,102.1 M762.6,122.4 L760.9,121.3 M832.4,131.5 L832.5,131.7 M879.5,143.5 L880.7,146.0 M929.1,185.6 L929.5,186.3 M963.7,188.1 L976.6,204.5 M919.8,214.8 L916.0,212.8 L912.5,210.4 M928.3,165.2 L928.4,165.4 M945.1,157.9 L944.2,157.3 L943.2,156.9"/>
    <path id="bs4" d="M309.7,120.9 L311.1,124.0 M274.0,128.2 L272.3,127.6 M359.0,102.1 L359.6,104.1 M359.5,131.2 L359.6,131.5 M329.4,217.7 L329.1,217.5 M403.3,191.7 L403.7,192.4 M391.5,182.3 L389.9,181.6 M388.3,180.9 L383.8,178.3 M448.3,145.8 L449.5,148.3 M419.6,155.0 L418.8,154.5 L417.8,154.1 M450.4,178.4 L451.6,180.6 L452.5,182.9 M391.9,216.1 L387.5,214.2 M546.0,150.6 L547.5,154.1 M512.6,157.4 L511.6,156.9 L510.5,156.6 M497.3,185.4 L498.3,187.5 M548.5,187.1 L548.7,187.6 M493.8,217.6 L489.7,216.2 M592.0,102.1 L592.6,104.1 M592.4,131.2 L592.6,131.5 M651.4,218.5 L648.2,217.4 M609.4,248.2 L609.1,248.1 M639.5,131.7 L639.6,132.1 M688.3,144.5 L690.2,147.9 M694.1,158.4 L694.7,161.4 M641.5,185.2 L642.3,187.0 M709.7,217.7 L709.4,217.5 M785.5,102.1 L786.1,104.1 M786.0,131.2 L786.1,131.5 M755.9,217.7 L755.6,217.5 M852.9,217.7 L852.6,217.5 M802.1,217.7 L801.8,217.5 M832.5,131.7 L832.6,132.1 M878.1,141.2 L879.5,143.5 M928.5,184.4 L928.7,185.0 L929.1,185.6 M976.9,205.1 L977.1,205.4 M971.9,145.1 L973.9,147.9 M975.8,150.9 L977.5,154.1 L978.9,157.3 M928.3,165.1 L928.3,165.2"/>
    <path id="bs5" d="M311.1,124.0 L312.3,127.2 M224.1,218.0 L223.7,218.0 M222.8,217.7 L222.5,217.5 M339.9,123.9 L337.9,123.2 L336.1,122.4 L330.4,218.0 L330.0,217.9 M329.7,217.8 L329.4,217.7 M402.9,190.0 L403.0,190.9 M396.4,184.0 L394.7,183.5 L393.1,183.0 L391.5,182.3 M449.5,148.3 L450.5,150.9 M404.2,159.0 L404.5,159.7 M396.7,217.5 L391.9,216.1 M547.5,154.1 L547.9,155.1 L548.2,156.1 L548.5,157.2 M572.9,123.9 L570.9,123.2 L569.1,122.4 L563.3,218.0 L563.0,217.9 M562.7,217.8 L562.4,217.7 M648.2,217.4 L645.3,215.9 L642.8,214.0 M640.7,211.6 L640.5,211.5 M690.2,147.9 L691.9,151.6 M654.7,156.7 L653.0,156.2 M740.0,101.4 L740.1,101.7 M766.4,123.9 L764.4,123.2 L762.6,122.4 L756.9,218.0 L756.5,217.9 M756.2,217.8 L755.9,217.7 M854.2,218.0 L853.9,218.0 L853.5,217.9 M853.2,217.8 L852.9,217.7 M846.1,156.9 L844.9,156.4 M803.5,218.0 L803.1,218.0 L802.7,217.9 L802.4,217.8 L802.1,217.7 M880.7,146.0 L881.7,148.6 M977.1,205.4 L977.2,205.7 M928.3,217.7 L923.9,216.4 M980.0,160.7 L980.9,164.2 M928.3,165.0 L928.3,165.1"/>
    <path id="bs7" d="M312.3,127.2 L313.1,130.6 M223.4,217.9 L223.1,217.8 M272.3,127.6 L270.4,127.2 M360.0,106.2 L360.1,108.5 M342.0,124.2 L339.9,123.9 M359.8,131.7 L359.8,132.1 M402.9,189.4 L402.9,190.0 M416.9,187.9 L415.4,187.6 M416.7,153.8 L415.5,153.6 M452.5,182.9 L453.2,185.5 M407.6,219.1 L401.9,218.5 L396.7,217.5 M548.5,157.2 L548.7,158.3 M510.5,156.6 L509.4,156.3 M548.7,187.6 L548.7,188.1 M502.5,219.2 L498.1,218.6 M489.7,216.2 L485.9,214.5 M575.0,124.2 L572.9,123.9 M592.7,131.7 L592.8,132.1 M640.5,211.5 L640.4,211.4 M610.1,248.3 L609.7,248.3 M639.6,132.4 L639.6,132.8 M639.9,179.0 L640.3,181.3 L640.8,183.3 M740.1,101.7 L740.2,102.1 M710.3,217.9 L710.0,217.8 M786.5,106.2 L786.6,108.5 M768.5,124.2 L766.4,123.9 M786.3,131.7 L786.4,132.1 M832.6,132.4 L832.7,132.8 M882.4,151.3 L883.0,154.2 M977.2,205.7 L977.2,206.0 M937.7,219.2 L932.9,218.6 M981.9,170.4 L982.0,171.6 L982.1,172.9 M928.3,164.8 L928.3,165.0 M943.2,156.9 L942.2,156.5"/>
    <path id="bs8" d="M313.1,130.6 L313.5,134.2 L313.7,137.9 L313.7,180.0 M271.9,217.9 L267.5,218.0 L224.1,218.0 M270.4,127.2 L268.5,127.1 L254.1,127.1 M253.3,127.9 L253.3,190.0 M359.6,104.1 L360.0,106.2 M344.2,124.4 L342.0,124.2 M359.8,132.1 L359.9,132.4 L359.9,132.8 L359.9,215.5 M357.4,218.0 L330.7,218.0 M409.5,186.5 L407.4,186.2 M405.4,185.9 L403.5,185.5 M451.2,153.6 L451.6,156.5 L451.7,159.5 M449.2,161.3 L424.7,161.3 L423.9,161.3 M414.3,153.4 L412.9,153.4 L411.6,153.4 M404.1,158.1 L404.2,159.0 M453.6,188.2 L453.7,191.2 M419.7,219.2 L413.7,219.3 L407.6,219.1 M548.7,158.3 L548.9,159.4 M549.0,160.5 L549.0,161.0 M509.4,156.3 L508.3,156.1 L507.0,156.1 L504.9,156.3 M495.5,171.4 L495.4,173.8 L495.5,176.0 M495.6,178.2 L495.9,180.2 M548.7,188.1 L548.7,188.9 M511.8,219.2 L507.2,219.3 L502.5,219.2 M592.6,104.1 L593.0,106.2 M577.2,124.4 L575.0,124.2 M592.8,132.1 L592.9,132.4 L592.9,132.8 L592.9,215.5 M590.4,218.0 L563.7,218.0 M695.8,174.5 L695.7,178.4 M662.8,219.2 L658.9,219.3 L655.0,219.1 L651.4,218.5 M640.4,211.4 L640.3,211.4 M639.6,211.9 L639.6,245.8 M637.1,248.4 L610.5,248.4 L610.1,248.3 M639.6,132.8 L639.6,137.9 M695.5,167.7 L695.8,171.0 L695.8,174.5 L695.8,174.5 M653.0,156.2 L651.1,156.1 M639.7,171.6 L639.6,174.0 L639.7,176.6 L639.9,179.0 M740.2,102.1 L740.2,102.4 L740.2,215.5 M737.7,218.0 L711.0,218.0 M786.1,104.1 L786.5,106.2 M770.7,124.4 L768.5,124.2 M786.4,132.1 L786.4,132.4 L786.4,132.8 L786.4,215.5 M783.9,218.0 L757.2,218.0 M883.4,160.5 L883.4,215.5 M880.9,218.0 L854.2,218.0 M844.9,156.4 L843.6,156.2 L842.3,156.1 L840.9,156.2 M832.7,165.8 L832.7,167.4 L832.7,215.5 M830.1,218.0 L803.5,218.0 M832.7,132.8 L832.7,138.9 M883.0,154.2 L883.3,157.3 L883.4,160.5 L883.4,160.5 M982.1,175.5 L982.1,176.4 L982.1,177.2 M979.4,182.1 L928.8,182.1 M928.2,183.3 L928.3,183.8 M977.2,206.0 L977.2,206.4 M946.2,219.3 L942.8,219.3 L937.7,219.2 M980.9,164.2 L981.6,167.9 L981.8,169.1 L981.9,170.4 M982.1,172.9 L982.1,174.2 L982.1,175.5 L982.1,175.5 M928.3,164.7 L928.3,164.8 M941.1,156.3 L939.9,156.1 L938.6,156.1 L936.4,156.3"/>
    <path id="bs9" d="M313.7,180.0 L313.5,183.7 L313.1,187.3 L312.3,190.7 M284.3,215.9 L280.4,216.8 M276.2,217.5 L271.9,217.9 M254.1,127.1 L253.9,127.1 M360.0,110.7 L359.6,112.8 M346.5,124.2 L344.2,124.4 M359.9,215.5 L359.9,215.8 L359.8,216.2 L359.8,216.5 M449.9,161.3 L449.2,161.3 M404.2,157.4 L404.1,158.1 M453.7,191.2 L453.4,195.6 M425.2,218.6 L419.7,219.2 M520.2,167.4 L519.5,167.3 M495.9,167.2 L495.6,169.2 M593.0,110.7 L592.6,112.8 M579.5,124.2 L577.2,124.4 M592.9,215.5 L592.9,215.8 L592.8,216.2 M695.7,178.4 L695.4,182.3 M694.2,189.5 L693.3,192.8 M640.3,211.4 L640.2,211.3 M637.8,248.3 L637.5,248.3 L637.1,248.4 M651.1,156.1 L649.2,156.2 M639.9,169.3 L639.7,171.6 M740.2,215.5 L740.2,215.8 M786.5,110.7 L786.1,112.8 M773.0,124.2 L770.7,124.4 M786.4,215.5 L786.4,215.8 L786.4,216.2 L786.3,216.5 M883.4,215.5 L883.4,215.8 L883.4,216.2 L883.3,216.5 M840.9,156.2 L839.5,156.4 M832.9,164.2 L832.7,165.8 M982.1,177.2 L982.1,177.9 L982.1,178.6 M977.2,206.4 L977.2,206.7 M955.7,218.1 L952.6,218.7 L949.4,219.0"/>
    <path id="bs11" d="M312.3,190.7 L311.1,193.9 L309.7,197.0 M253.7,127.2 L253.5,127.3 L253.4,127.4 L253.3,127.7 L253.3,127.9 M359.0,114.7 L358.1,116.5 M354.1,121.2 L352.4,122.3 M350.5,123.2 L348.6,123.9 L346.5,124.2 M359.6,216.8 L359.5,217.1 M359.0,217.5 L358.7,217.7 M357.8,218.0 L357.4,218.0 M451.6,160.0 L451.4,160.5 M408.4,153.9 L407.4,154.3 L406.6,154.6 M453.4,195.6 L452.5,199.7 L451.0,203.3 M434.9,216.2 L430.2,217.6 M549.0,161.0 L549.0,161.5 L548.8,162.0 M548.1,162.7 L547.5,163.0 L546.9,163.2 L520.7,167.4 M504.9,156.3 L503.0,156.8 M497.4,162.2 L496.8,163.7 L496.3,165.3 L495.9,167.2 M548.6,189.7 L548.4,190.5 M548.2,191.5 L547.9,192.6 M547.5,193.7 L545.9,197.7 M532.3,212.7 L528.5,214.7 L524.6,216.4 L520.6,217.7 M593.1,108.5 L593.0,110.7 M592.0,114.7 L591.1,116.5 M587.1,121.2 L585.4,122.3 M583.5,123.2 L581.6,123.9 L579.5,124.2 M592.7,216.5 L592.6,216.8 L592.4,217.1 M592.0,217.5 L591.7,217.7 L591.4,217.8 M590.8,218.0 L590.4,218.0 M694.9,185.9 L694.2,189.5 M693.3,192.8 L692.1,196.1 M673.4,216.5 L670.0,217.7 L666.5,218.6 M640.0,211.3 L639.9,211.4 L639.8,211.4 M639.7,211.5 L639.7,211.6 L639.7,211.8 L639.6,211.9 M639.6,246.6 L639.5,246.9 L639.3,247.2 M638.7,247.9 L638.5,248.1 L638.2,248.2 M649.2,156.2 L647.5,156.7 M642.2,161.8 L641.4,163.5 L640.8,165.3 L640.3,167.2 M740.1,216.2 L740.0,216.5 L739.9,216.8 M739.3,217.5 L739.0,217.7 L738.7,217.8 L738.4,217.9 L738.0,218.0 L737.7,218.0 M785.5,114.7 L784.6,116.5 M780.6,121.2 L778.9,122.3 M777.0,123.2 L775.1,123.9 L773.0,124.2 M786.1,216.8 L786.0,217.1 M785.5,217.5 L785.2,217.7 M784.3,218.0 L783.9,218.0 M883.1,216.8 L883.0,217.1 M882.5,217.5 L882.3,217.7 M881.3,218.0 L880.9,218.0 M839.5,156.4 L838.3,156.9 L837.2,157.5 M833.8,161.5 L833.3,162.8 L832.9,164.2 M832.6,215.8 L832.6,216.2 L832.5,216.5 L832.4,216.8 M831.7,217.5 L831.5,217.7 L831.2,217.8 L830.9,217.9 L830.5,218.0 L830.1,218.0 M982.0,179.2 L982.0,179.7 M980.8,181.8 L980.2,182.0 M928.8,182.1 L928.6,182.1 L928.4,182.1 M928.2,182.5 L928.1,182.7 M977.1,207.0 L977.0,207.3 M969.8,213.0 L967.2,214.4 L964.6,215.6 L961.7,216.6 M929.0,162.8 L928.3,164.7 M936.4,156.3 L934.5,156.8 M929.0,162.8 L929.0,162.8"/>
    <path id="bs12" d="M309.7,197.0 L308.0,199.9 L305.9,202.7 L303.6,205.3 L301.0,207.6 L298.2,209.7 L295.1,211.6 L291.7,213.3 L288.1,214.7 M359.6,112.8 L359.0,114.7 M358.1,116.5 L357.0,118.2 L355.6,119.8 L354.1,121.2 M352.4,122.3 L350.5,123.2 M359.5,217.1 L359.2,217.3 L359.0,217.5 M451.4,160.5 L451.1,160.8 L450.6,161.1 M406.6,154.6 L405.8,155.1 L405.2,155.6 L404.7,156.1 L404.4,156.7 M451.0,203.3 L448.9,206.7 L446.2,209.6 L442.9,212.2 L439.1,214.4 L434.9,216.2 M548.8,162.0 L548.5,162.4 L548.1,162.7 M503.0,156.8 L501.3,157.6 L499.8,158.8 L498.5,160.3 L497.4,162.2 M545.9,197.7 L543.9,201.3 L541.5,204.6 L538.8,207.6 L535.7,210.3 L532.3,212.7 M592.6,112.8 L592.0,114.7 M591.1,116.5 L590.0,118.2 L588.6,119.8 L587.1,121.2 M585.4,122.3 L583.5,123.2 M592.4,217.1 L592.2,217.3 L592.0,217.5 M692.1,196.1 L690.6,199.4 L688.9,202.5 L686.9,205.4 L684.7,208.1 L682.2,210.6 L679.5,212.9 L676.5,214.8 L673.4,216.5 M639.8,211.4 L639.7,211.5 M639.3,247.2 L639.2,247.5 L639.0,247.7 L638.7,247.9 M647.5,156.7 L645.9,157.5 L644.5,158.6 L643.3,160.1 L642.2,161.8 M739.9,216.8 L739.7,217.1 L739.5,217.3 L739.3,217.5 M786.1,112.8 L785.5,114.7 M784.6,116.5 L783.5,118.2 L782.1,119.8 L780.6,121.2 M778.9,122.3 L777.0,123.2 M786.0,217.1 L785.8,217.3 L785.5,217.5 M883.0,217.1 L882.8,217.3 L882.5,217.5 M837.2,157.5 L836.2,158.3 L835.3,159.2 L834.5,160.3 L833.8,161.5 M832.4,216.8 L832.2,217.1 L832.0,217.3 L831.7,217.5 M981.7,181.0 L981.3,181.5 L980.8,181.8 M928.4,182.1 L928.3,182.2 L928.2,182.4 L928.2,182.5 M977.0,207.3 L976.9,207.6 L976.7,207.8 L976.4,208.0 L974.3,209.9 L972.1,211.5 L969.8,213.0 M934.5,156.8 L932.7,157.8 L931.3,159.1 L930.0,160.8 L929.0,162.8"/>
    <path id="bs10" d="M288.1,214.7 L284.3,215.9 M280.4,216.8 L276.2,217.5 M253.9,127.1 L253.7,127.2 M360.1,108.5 L360.0,110.7 M359.8,216.5 L359.6,216.8 M358.7,217.7 L358.4,217.8 L358.1,217.9 L357.8,218.0 M451.7,159.5 L451.6,160.0 M450.6,161.1 L449.9,161.3 M411.6,153.4 L410.5,153.5 L409.4,153.7 L408.4,153.9 M404.4,156.7 L404.2,157.4 M430.2,217.6 L425.2,218.6 M520.7,167.4 L520.2,167.4 M495.6,169.2 L495.5,171.4 M548.7,188.9 L548.6,189.7 M548.4,190.5 L548.2,191.5 M547.9,192.6 L547.5,193.7 M520.6,217.7 L516.3,218.6 L511.8,219.2 M592.8,216.2 L592.7,216.5 M591.4,217.8 L591.1,217.9 L590.8,218.0 M695.4,182.3 L694.9,185.9 M666.5,218.6 L662.8,219.2 M640.2,211.3 L640.1,211.3 L640.0,211.3 M639.6,245.8 L639.6,246.2 L639.6,246.6 M638.2,248.2 L637.8,248.3 M640.3,167.2 L639.9,169.3 M740.2,215.8 L740.1,216.2 M786.6,108.5 L786.5,110.7 M786.3,216.5 L786.1,216.8 M785.2,217.7 L785.0,217.8 L784.6,217.9 L784.3,218.0 M883.3,216.5 L883.1,216.8 M882.3,217.7 L882.0,217.8 L881.6,217.9 L881.3,218.0 M832.7,215.5 L832.6,215.8 M982.1,178.6 L982.0,179.2 M982.0,179.7 L981.9,180.4 L981.7,181.0 M980.2,182.0 L979.4,182.1 M928.1,182.7 L928.2,183.3 M977.2,206.7 L977.1,207.0 M961.7,216.6 L958.8,217.4 L955.7,218.1 M949.4,219.0 L946.2,219.3"/>
    <path id="bs6" d="M223.7,218.0 L223.4,217.9 M223.1,217.8 L222.8,217.7 M275.5,129.1 L274.0,128.2 M253.3,190.0 L253.3,190.3 M359.6,131.5 L359.8,131.7 M330.0,217.9 L329.7,217.8 M402.7,189.0 L402.9,189.4 M403.0,190.9 L403.3,191.7 M419.1,188.6 L418.1,188.2 L416.9,187.9 M415.4,187.6 L413.7,187.2 L411.7,186.8 L409.5,186.5 M407.4,186.2 L405.4,185.9 M403.5,185.5 L401.6,185.2 L399.8,184.8 L398.1,184.4 L396.4,184.0 M450.5,150.9 L451.2,153.6 M423.9,161.3 L423.3,161.1 M417.8,154.1 L416.7,153.8 M415.5,153.6 L414.3,153.4 M453.2,185.5 L453.6,188.2 M548.9,159.4 L549.0,160.5 M519.5,167.3 L519.0,167.1 M495.5,176.0 L495.6,178.2 M495.9,180.2 L496.2,182.0 L496.7,183.8 L497.3,185.4 M498.1,218.6 L493.8,217.6 M593.0,106.2 L593.1,108.5 M592.6,131.5 L592.7,131.7 M563.0,217.9 L562.7,217.8 M609.7,248.3 L609.4,248.2 M639.6,132.1 L639.6,132.4 M691.9,151.6 L693.3,155.6 L694.1,158.4 M694.7,161.4 L695.2,164.5 L695.5,167.7 M656.3,157.5 L654.7,156.7 M640.8,183.3 L641.5,185.2 M711.0,218.0 L710.6,218.0 L710.3,217.9 M710.0,217.8 L709.7,217.7 M786.1,131.5 L786.3,131.7 M756.5,217.9 L756.2,217.8 M853.5,217.9 L853.2,217.8 M832.6,132.1 L832.6,132.4 M881.7,148.6 L882.4,151.3 M928.3,183.8 L928.5,184.4 M932.9,218.6 L928.3,217.7 M923.9,216.4 L919.8,214.8 M978.9,157.3 L980.0,160.7 M942.2,156.5 L941.1,156.3"/>
    <path id="bs1" d="M355.6,97.0 L357.0,98.6 M420.6,189.3 L420.0,188.9 M383.8,178.3 L380.2,175.3 M443.1,139.2 L445.1,141.2 M446.8,143.4 L448.3,145.8 M539.2,141.3 L541.9,144.2 M498.3,187.5 L499.6,189.2 M548.2,186.6 L548.5,187.1 M588.6,97.0 L590.0,98.6 M639.2,131.2 L639.3,131.5 M739.7,100.8 L739.9,101.1 M782.1,97.0 L783.5,98.6 M847.2,157.5 L846.1,156.9 M832.2,131.2 L832.4,131.5 M870.9,134.0 L872.9,135.5 M874.8,137.2 L876.5,139.1 L878.1,141.2 M929.5,186.3 L930.1,187.2 M976.6,204.5 L976.8,204.8 M967.2,140.0 L969.6,142.4 M973.9,147.9 L975.8,150.9 M928.4,165.4 L928.5,165.4 M945.9,158.5 L945.1,157.9"/>
    <filter id="soft" filterUnits="userSpaceOnUse" x="0" y="0" width="1200" height="290" color-interpolation-filters="sRGB"><feGaussianBlur stdDeviation="2.8"/></filter>
    <filter id="frost" filterUnits="userSpaceOnUse" x="0" y="0" width="1200" height="290" color-interpolation-filters="sRGB"><feGaussianBlur stdDeviation="6"/></filter>
    <filter id="bloomA" filterUnits="userSpaceOnUse" x="0" y="0" width="1200" height="290" color-interpolation-filters="sRGB"><feGaussianBlur stdDeviation="9 5.5"/></filter>
    <filter id="bloomB" filterUnits="userSpaceOnUse" x="0" y="0" width="1200" height="290" color-interpolation-filters="sRGB"><feGaussianBlur stdDeviation="32 12"/></filter>
  </defs>

  <!-- light travelling outside the glass -->
  <g mask="url(#outside)"><g filter="url(#glow)"><rect width="1200" height="290" fill="#fff" fill-opacity="0.004"/><use href="#light"/></g></g>

  <!-- the glass: body tint, then the light seen through it -->
  <use href="#word" fill="url(#body)"/>
  <g clip-path="url(#wordclip)">
    <use href="#word" fill="none" stroke="#1c2340" stroke-width="14" stroke-opacity="0.14"/>
    <g filter="url(#bloomB)"><g opacity="0.45">
        <g fill="none" stroke-width="37.5" stroke-linecap="round" stroke-linejoin="round" stroke-opacity="0.5" mask="url(#wavemask)">
          <use href="#r0" stroke="#e0182d"/>
          <use href="#r1" stroke="#12b84a"/>
          <use href="#r2" stroke="#2350e0"/>
        </g>
        <use href="#rb" fill="none" stroke="#0b1020" stroke-width="27" stroke-linecap="round" mask="url(#beammask)"/>
      </g></g>
    <g filter="url(#bloomA)"><g opacity="0.55">
        <g fill="none" stroke-width="19.5" stroke-linecap="round" stroke-linejoin="round" stroke-opacity="0.5" mask="url(#wavemask)">
          <use href="#r0" stroke="#e0182d"/>
          <use href="#r1" stroke="#12b84a"/>
          <use href="#r2" stroke="#2350e0"/>
        </g>
        <use href="#rb" fill="none" stroke="#0b1020" stroke-width="14.04" stroke-linecap="round" mask="url(#beammask)"/>
      </g></g>
    <g filter="url(#frost)"><g opacity="1">
        <g fill="none" stroke-width="7.5" stroke-linecap="round" stroke-linejoin="round" stroke-opacity="0.5" mask="url(#wavemask)">
          <use href="#r0" stroke="#e0182d"/>
          <use href="#r1" stroke="#12b84a"/>
          <use href="#r2" stroke="#2350e0"/>
        </g>
        <use href="#rb" fill="none" stroke="#0b1020" stroke-width="5.4" stroke-linecap="round" mask="url(#beammask)"/>
      </g></g>
    <g filter="url(#soft)">
      <use href="#bs1" fill="none" stroke="#1c2340" stroke-opacity="0.008" stroke-width="2.00" stroke-linejoin="round"/>
      <use href="#bs1" fill="none" stroke="#1c2340" stroke-opacity="0.011" stroke-width="4.00" stroke-linejoin="round"/>
      <use href="#bs1" fill="none" stroke="#1c2340" stroke-opacity="0.011" stroke-width="6.00" stroke-linejoin="round"/>
      <use href="#bs1" fill="none" stroke="#1c2340" stroke-opacity="0.008" stroke-width="8.00" stroke-linejoin="round"/>
      <use href="#bs1" fill="none" stroke="#1c2340" stroke-opacity="0.001" stroke-width="10.00" stroke-linejoin="round"/>
      <use href="#bs2" fill="none" stroke="#1c2340" stroke-opacity="0.015" stroke-width="2.00" stroke-linejoin="round"/>
      <use href="#bs2" fill="none" stroke="#1c2340" stroke-opacity="0.023" stroke-width="4.00" stroke-linejoin="round"/>
      <use href="#bs2" fill="none" stroke="#1c2340" stroke-opacity="0.023" stroke-width="6.00" stroke-linejoin="round"/>
      <use href="#bs2" fill="none" stroke="#1c2340" stroke-opacity="0.015" stroke-width="8.00" stroke-linejoin="round"/>
      <use href="#bs2" fill="none" stroke="#1c2340" stroke-opacity="0.002" stroke-width="10.00" stroke-linejoin="round"/>
      <use href="#bs3" fill="none" stroke="#1c2340" stroke-opacity="0.023" stroke-width="2.00" stroke-linejoin="round"/>
      <use href="#bs3" fill="none" stroke="#1c2340" stroke-opacity="0.034" stroke-width="4.00" stroke-linejoin="round"/>
      <use href="#bs3" fill="none" stroke="#1c2340" stroke-opacity="0.034" stroke-width="6.00" stroke-linejoin="round"/>
      <use href="#bs3" fill="none" stroke="#1c2340" stroke-opacity="0.023" stroke-width="8.00" stroke-linejoin="round"/>
      <use href="#bs3" fill="none" stroke="#1c2340" stroke-opacity="0.003" stroke-width="10.00" stroke-linejoin="round"/>
      <use href="#bs4" fill="none" stroke="#1c2340" stroke-opacity="0.030" stroke-width="2.00" stroke-linejoin="round"/>
      <use href="#bs4" fill="none" stroke="#1c2340" stroke-opacity="0.045" stroke-width="4.00" stroke-linejoin="round"/>
      <use href="#bs4" fill="none" stroke="#1c2340" stroke-opacity="0.045" stroke-width="6.00" stroke-linejoin="round"/>
      <use href="#bs4" fill="none" stroke="#1c2340" stroke-opacity="0.030" stroke-width="8.00" stroke-linejoin="round"/>
      <use href="#bs4" fill="none" stroke="#1c2340" stroke-opacity="0.004" stroke-width="10.00" stroke-linejoin="round"/>
      <use href="#bs5" fill="none" stroke="#1c2340" stroke-opacity="0.038" stroke-width="2.00" stroke-linejoin="round"/>
      <use href="#bs5" fill="none" stroke="#1c2340" stroke-opacity="0.057" stroke-width="4.00" stroke-linejoin="round"/>
      <use href="#bs5" fill="none" stroke="#1c2340" stroke-opacity="0.057" stroke-width="6.00" stroke-linejoin="round"/>
      <use href="#bs5" fill="none" stroke="#1c2340" stroke-opacity="0.038" stroke-width="8.00" stroke-linejoin="round"/>
      <use href="#bs5" fill="none" stroke="#1c2340" stroke-opacity="0.006" stroke-width="10.00" stroke-linejoin="round"/>
      <use href="#bs6" fill="none" stroke="#1c2340" stroke-opacity="0.045" stroke-width="2.00" stroke-linejoin="round"/>
      <use href="#bs6" fill="none" stroke="#1c2340" stroke-opacity="0.068" stroke-width="4.00" stroke-linejoin="round"/>
      <use href="#bs6" fill="none" stroke="#1c2340" stroke-opacity="0.068" stroke-width="6.00" stroke-linejoin="round"/>
      <use href="#bs6" fill="none" stroke="#1c2340" stroke-opacity="0.045" stroke-width="8.00" stroke-linejoin="round"/>
      <use href="#bs6" fill="none" stroke="#1c2340" stroke-opacity="0.007" stroke-width="10.00" stroke-linejoin="round"/>
      <use href="#bs7" fill="none" stroke="#1c2340" stroke-opacity="0.053" stroke-width="2.00" stroke-linejoin="round"/>
      <use href="#bs7" fill="none" stroke="#1c2340" stroke-opacity="0.080" stroke-width="4.00" stroke-linejoin="round"/>
      <use href="#bs7" fill="none" stroke="#1c2340" stroke-opacity="0.080" stroke-width="6.00" stroke-linejoin="round"/>
      <use href="#bs7" fill="none" stroke="#1c2340" stroke-opacity="0.053" stroke-width="8.00" stroke-linejoin="round"/>
      <use href="#bs7" fill="none" stroke="#1c2340" stroke-opacity="0.008" stroke-width="10.00" stroke-linejoin="round"/>
      <use href="#bs8" fill="none" stroke="#1c2340" stroke-opacity="0.060" stroke-width="2.00" stroke-linejoin="round"/>
      <use href="#bs8" fill="none" stroke="#1c2340" stroke-opacity="0.091" stroke-width="4.00" stroke-linejoin="round"/>
      <use href="#bs8" fill="none" stroke="#1c2340" stroke-opacity="0.091" stroke-width="6.00" stroke-linejoin="round"/>
      <use href="#bs8" fill="none" stroke="#1c2340" stroke-opacity="0.060" stroke-width="8.00" stroke-linejoin="round"/>
      <use href="#bs8" fill="none" stroke="#1c2340" stroke-opacity="0.009" stroke-width="10.00" stroke-linejoin="round"/>
      <use href="#bs9" fill="none" stroke="#1c2340" stroke-opacity="0.068" stroke-width="2.00" stroke-linejoin="round"/>
      <use href="#bs9" fill="none" stroke="#1c2340" stroke-opacity="0.102" stroke-width="4.00" stroke-linejoin="round"/>
      <use href="#bs9" fill="none" stroke="#1c2340" stroke-opacity="0.102" stroke-width="6.00" stroke-linejoin="round"/>
      <use href="#bs9" fill="none" stroke="#1c2340" stroke-opacity="0.068" stroke-width="8.00" stroke-linejoin="round"/>
      <use href="#bs9" fill="none" stroke="#1c2340" stroke-opacity="0.010" stroke-width="10.00" stroke-linejoin="round"/>
      <use href="#bs10" fill="none" stroke="#1c2340" stroke-opacity="0.075" stroke-width="2.00" stroke-linejoin="round"/>
      <use href="#bs10" fill="none" stroke="#1c2340" stroke-opacity="0.114" stroke-width="4.00" stroke-linejoin="round"/>
      <use href="#bs10" fill="none" stroke="#1c2340" stroke-opacity="0.114" stroke-width="6.00" stroke-linejoin="round"/>
      <use href="#bs10" fill="none" stroke="#1c2340" stroke-opacity="0.075" stroke-width="8.00" stroke-linejoin="round"/>
      <use href="#bs10" fill="none" stroke="#1c2340" stroke-opacity="0.011" stroke-width="10.00" stroke-linejoin="round"/>
      <use href="#bs11" fill="none" stroke="#1c2340" stroke-opacity="0.083" stroke-width="2.00" stroke-linejoin="round"/>
      <use href="#bs11" fill="none" stroke="#1c2340" stroke-opacity="0.125" stroke-width="4.00" stroke-linejoin="round"/>
      <use href="#bs11" fill="none" stroke="#1c2340" stroke-opacity="0.125" stroke-width="6.00" stroke-linejoin="round"/>
      <use href="#bs11" fill="none" stroke="#1c2340" stroke-opacity="0.083" stroke-width="8.00" stroke-linejoin="round"/>
      <use href="#bs11" fill="none" stroke="#1c2340" stroke-opacity="0.012" stroke-width="10.00" stroke-linejoin="round"/>
      <use href="#bs12" fill="none" stroke="#1c2340" stroke-opacity="0.090" stroke-width="2.00" stroke-linejoin="round"/>
      <use href="#bs12" fill="none" stroke="#1c2340" stroke-opacity="0.136" stroke-width="4.00" stroke-linejoin="round"/>
      <use href="#bs12" fill="none" stroke="#1c2340" stroke-opacity="0.136" stroke-width="6.00" stroke-linejoin="round"/>
      <use href="#bs12" fill="none" stroke="#1c2340" stroke-opacity="0.090" stroke-width="8.00" stroke-linejoin="round"/>
      <use href="#bs12" fill="none" stroke="#1c2340" stroke-opacity="0.013" stroke-width="10.00" stroke-linejoin="round"/>
      <use href="#bl1" fill="none" stroke="#ffffff" stroke-opacity="0.012" stroke-width="2.00" stroke-linejoin="round"/>
      <use href="#bl1" fill="none" stroke="#ffffff" stroke-opacity="0.018" stroke-width="4.00" stroke-linejoin="round"/>
      <use href="#bl1" fill="none" stroke="#ffffff" stroke-opacity="0.018" stroke-width="6.00" stroke-linejoin="round"/>
      <use href="#bl1" fill="none" stroke="#ffffff" stroke-opacity="0.012" stroke-width="8.00" stroke-linejoin="round"/>
      <use href="#bl1" fill="none" stroke="#ffffff" stroke-opacity="0.002" stroke-width="10.00" stroke-linejoin="round"/>
      <use href="#bl2" fill="none" stroke="#ffffff" stroke-opacity="0.024" stroke-width="2.00" stroke-linejoin="round"/>
      <use href="#bl2" fill="none" stroke="#ffffff" stroke-opacity="0.036" stroke-width="4.00" stroke-linejoin="round"/>
      <use href="#bl2" fill="none" stroke="#ffffff" stroke-opacity="0.036" stroke-width="6.00" stroke-linejoin="round"/>
      <use href="#bl2" fill="none" stroke="#ffffff" stroke-opacity="0.024" stroke-width="8.00" stroke-linejoin="round"/>
      <use href="#bl2" fill="none" stroke="#ffffff" stroke-opacity="0.004" stroke-width="10.00" stroke-linejoin="round"/>
      <use href="#bl3" fill="none" stroke="#ffffff" stroke-opacity="0.036" stroke-width="2.00" stroke-linejoin="round"/>
      <use href="#bl3" fill="none" stroke="#ffffff" stroke-opacity="0.054" stroke-width="4.00" stroke-linejoin="round"/>
      <use href="#bl3" fill="none" stroke="#ffffff" stroke-opacity="0.054" stroke-width="6.00" stroke-linejoin="round"/>
      <use href="#bl3" fill="none" stroke="#ffffff" stroke-opacity="0.036" stroke-width="8.00" stroke-linejoin="round"/>
      <use href="#bl3" fill="none" stroke="#ffffff" stroke-opacity="0.005" stroke-width="10.00" stroke-linejoin="round"/>
      <use href="#bl4" fill="none" stroke="#ffffff" stroke-opacity="0.048" stroke-width="2.00" stroke-linejoin="round"/>
      <use href="#bl4" fill="none" stroke="#ffffff" stroke-opacity="0.072" stroke-width="4.00" stroke-linejoin="round"/>
      <use href="#bl4" fill="none" stroke="#ffffff" stroke-opacity="0.072" stroke-width="6.00" stroke-linejoin="round"/>
      <use href="#bl4" fill="none" stroke="#ffffff" stroke-opacity="0.048" stroke-width="8.00" stroke-linejoin="round"/>
      <use href="#bl4" fill="none" stroke="#ffffff" stroke-opacity="0.007" stroke-width="10.00" stroke-linejoin="round"/>
      <use href="#bl5" fill="none" stroke="#ffffff" stroke-opacity="0.060" stroke-width="2.00" stroke-linejoin="round"/>
      <use href="#bl5" fill="none" stroke="#ffffff" stroke-opacity="0.090" stroke-width="4.00" stroke-linejoin="round"/>
      <use href="#bl5" fill="none" stroke="#ffffff" stroke-opacity="0.090" stroke-width="6.00" stroke-linejoin="round"/>
      <use href="#bl5" fill="none" stroke="#ffffff" stroke-opacity="0.060" stroke-width="8.00" stroke-linejoin="round"/>
      <use href="#bl5" fill="none" stroke="#ffffff" stroke-opacity="0.009" stroke-width="10.00" stroke-linejoin="round"/>
      <use href="#bl6" fill="none" stroke="#ffffff" stroke-opacity="0.071" stroke-width="2.00" stroke-linejoin="round"/>
      <use href="#bl6" fill="none" stroke="#ffffff" stroke-opacity="0.108" stroke-width="4.00" stroke-linejoin="round"/>
      <use href="#bl6" fill="none" stroke="#ffffff" stroke-opacity="0.108" stroke-width="6.00" stroke-linejoin="round"/>
      <use href="#bl6" fill="none" stroke="#ffffff" stroke-opacity="0.071" stroke-width="8.00" stroke-linejoin="round"/>
      <use href="#bl6" fill="none" stroke="#ffffff" stroke-opacity="0.011" stroke-width="10.00" stroke-linejoin="round"/>
      <use href="#bl7" fill="none" stroke="#ffffff" stroke-opacity="0.083" stroke-width="2.00" stroke-linejoin="round"/>
      <use href="#bl7" fill="none" stroke="#ffffff" stroke-opacity="0.126" stroke-width="4.00" stroke-linejoin="round"/>
      <use href="#bl7" fill="none" stroke="#ffffff" stroke-opacity="0.126" stroke-width="6.00" stroke-linejoin="round"/>
      <use href="#bl7" fill="none" stroke="#ffffff" stroke-opacity="0.083" stroke-width="8.00" stroke-linejoin="round"/>
      <use href="#bl7" fill="none" stroke="#ffffff" stroke-opacity="0.012" stroke-width="10.00" stroke-linejoin="round"/>
      <use href="#bl8" fill="none" stroke="#ffffff" stroke-opacity="0.095" stroke-width="2.00" stroke-linejoin="round"/>
      <use href="#bl8" fill="none" stroke="#ffffff" stroke-opacity="0.144" stroke-width="4.00" stroke-linejoin="round"/>
      <use href="#bl8" fill="none" stroke="#ffffff" stroke-opacity="0.144" stroke-width="6.00" stroke-linejoin="round"/>
      <use href="#bl8" fill="none" stroke="#ffffff" stroke-opacity="0.095" stroke-width="8.00" stroke-linejoin="round"/>
      <use href="#bl8" fill="none" stroke="#ffffff" stroke-opacity="0.014" stroke-width="10.00" stroke-linejoin="round"/>
      <use href="#bl9" fill="none" stroke="#ffffff" stroke-opacity="0.107" stroke-width="2.00" stroke-linejoin="round"/>
      <use href="#bl9" fill="none" stroke="#ffffff" stroke-opacity="0.162" stroke-width="4.00" stroke-linejoin="round"/>
      <use href="#bl9" fill="none" stroke="#ffffff" stroke-opacity="0.162" stroke-width="6.00" stroke-linejoin="round"/>
      <use href="#bl9" fill="none" stroke="#ffffff" stroke-opacity="0.107" stroke-width="8.00" stroke-linejoin="round"/>
      <use href="#bl9" fill="none" stroke="#ffffff" stroke-opacity="0.016" stroke-width="10.00" stroke-linejoin="round"/>
      <use href="#bl10" fill="none" stroke="#ffffff" stroke-opacity="0.119" stroke-width="2.00" stroke-linejoin="round"/>
      <use href="#bl10" fill="none" stroke="#ffffff" stroke-opacity="0.180" stroke-width="4.00" stroke-linejoin="round"/>
      <use href="#bl10" fill="none" stroke="#ffffff" stroke-opacity="0.180" stroke-width="6.00" stroke-linejoin="round"/>
      <use href="#bl10" fill="none" stroke="#ffffff" stroke-opacity="0.119" stroke-width="8.00" stroke-linejoin="round"/>
      <use href="#bl10" fill="none" stroke="#ffffff" stroke-opacity="0.018" stroke-width="10.00" stroke-linejoin="round"/>
      <use href="#bl11" fill="none" stroke="#ffffff" stroke-opacity="0.131" stroke-width="2.00" stroke-linejoin="round"/>
      <use href="#bl11" fill="none" stroke="#ffffff" stroke-opacity="0.198" stroke-width="4.00" stroke-linejoin="round"/>
      <use href="#bl11" fill="none" stroke="#ffffff" stroke-opacity="0.198" stroke-width="6.00" stroke-linejoin="round"/>
      <use href="#bl11" fill="none" stroke="#ffffff" stroke-opacity="0.131" stroke-width="8.00" stroke-linejoin="round"/>
      <use href="#bl11" fill="none" stroke="#ffffff" stroke-opacity="0.020" stroke-width="10.00" stroke-linejoin="round"/>
      <use href="#bl12" fill="none" stroke="#ffffff" stroke-opacity="0.143" stroke-width="2.00" stroke-linejoin="round"/>
      <use href="#bl12" fill="none" stroke="#ffffff" stroke-opacity="0.216" stroke-width="4.00" stroke-linejoin="round"/>
      <use href="#bl12" fill="none" stroke="#ffffff" stroke-opacity="0.216" stroke-width="6.00" stroke-linejoin="round"/>
      <use href="#bl12" fill="none" stroke="#ffffff" stroke-opacity="0.143" stroke-width="8.00" stroke-linejoin="round"/>
      <use href="#bl12" fill="none" stroke="#ffffff" stroke-opacity="0.021" stroke-width="10.00" stroke-linejoin="round"/>
    </g>
    <use href="#word" fill="none" stroke="#1c2340" stroke-width="1.8" stroke-opacity="0.55"/>
  </g>
</svg>
